<?xml version="1.0" encoding="UTF-8"?>
<svg width="1024px" height="117px" viewBox="0 0 1024 117" version="1.1" xmlns="http://www.w3.org/2000/svg" xmlns:xlink="http://www.w3.org/1999/xlink">
    <!-- Generator: Sketch 41.2 (35397) - http://www.bohemiancoding.com/sketch -->
    <title>header_inner</title>
    <desc>Created with Sketch.</desc>
    <defs></defs>
    <g id="Page-1" stroke="none" stroke-width="1" fill="none" fill-rule="evenodd" opacity="0.05">
        <g id="Publishers" transform="translate(0.000000, -45.000000)">
            <g id="header_inner" transform="translate(0.000000, 45.000000)">
                <g id="crops-pattern-copy" transform="translate(0.000000, -46.000000)">
                    <g id="maize" transform="translate(30.000000, 82.000000)">
                        <path d="M42.0837155,58.1142125 C13.4337876,23.5003413 42.1191406,0.156982422 42.1191406,0.156982422 C42.1191406,0.156982422 42.1192367,0.188826104 42.1194174,0.252374493 C43.2398092,1.18444372 70.1795963,24.1849002 42.119253,58.0864955 C42.1192156,58.1099843 42.1191781,58.1334799 42.1191406,58.1569824 C42.1094224,58.1452574 42.0997107,58.1335336 42.0900057,58.1218111 C42.0837322,58.1243148 42.0837241,58.1192587 42.083716,58.1142029 Z" id="Combined-Shape" stroke="#073B4C" stroke-width="2" stroke-linecap="square"></path>
                        <path d="M42.4433594,61.1367187 C42.4433594,61.1367187 40.0214844,6.8984375 0.537109375,32.5175781 C19.0644531,29.7314453 22.4140625,30.7578125 28.0136719,45.9472656 C33.6132812,61.1367187 42.4433594,61.1367187 42.4433594,61.1367187 Z" id="Path-3" fill="#073B4C"></path>
                        <path d="M82.0909538,61.1367187 C82.0909538,61.1367187 95.1378288,4.1484375 40.1847038,32.5175781 C58.7120476,29.7314453 62.0616569,30.7578125 67.6612663,45.9472656 C73.2608757,61.1367188 82.0909538,61.1367187 82.0909538,61.1367187 Z" id="Path-3-Copy" fill="#073B4C" transform="translate(61.814032, 42.868427) scale(-1, 1) translate(-61.814032, -42.868427) "></path>
                        <circle id="Oval" fill="#073B4C" cx="36" cy="18" r="2"></circle>
                        <circle id="Oval-Copy-3" fill="#073B4C" cx="36" cy="24" r="2"></circle>
                        <circle id="Oval-Copy-6" fill="#073B4C" cx="36" cy="30" r="2"></circle>
                        <circle id="Oval-Copy-9" fill="#073B4C" cx="36" cy="36" r="2"></circle>
                        <circle id="Oval-Copy" fill="#073B4C" cx="42" cy="18" r="2"></circle>
                        <circle id="Oval-Copy-12" fill="#073B4C" cx="42" cy="12" r="2"></circle>
                        <circle id="Oval-Copy-4" fill="#073B4C" cx="42" cy="24" r="2"></circle>
                        <circle id="Oval-Copy-7" fill="#073B4C" cx="42" cy="30" r="2"></circle>
                        <circle id="Oval-Copy-10" fill="#073B4C" cx="42" cy="36" r="2"></circle>
                        <circle id="Oval-Copy-2" fill="#073B4C" cx="48" cy="18" r="2"></circle>
                        <circle id="Oval-Copy-5" fill="#073B4C" cx="48" cy="24" r="2"></circle>
                        <circle id="Oval-Copy-8" fill="#073B4C" cx="48" cy="30" r="2"></circle>
                        <circle id="Oval-Copy-11" fill="#073B4C" cx="48" cy="36" r="2"></circle>
                    </g>
                    <g id="maize-copy-2" transform="translate(412.000000, 82.000000)">
                        <path d="M42.0837155,58.1142125 C13.4337876,23.5003413 42.1191406,0.156982422 42.1191406,0.156982422 C42.1191406,0.156982422 42.1192367,0.188826104 42.1194174,0.252374493 C43.2398092,1.18444372 70.1795963,24.1849002 42.119253,58.0864955 C42.1192156,58.1099843 42.1191781,58.1334799 42.1191406,58.1569824 C42.1094224,58.1452574 42.0997107,58.1335336 42.0900057,58.1218111 C42.0837322,58.1243148 42.0837241,58.1192587 42.083716,58.1142029 Z" id="Combined-Shape" stroke="#073B4C" stroke-width="2" stroke-linecap="square"></path>
                        <path d="M42.4433594,61.1367187 C42.4433594,61.1367187 40.0214844,6.8984375 0.537109375,32.5175781 C19.0644531,29.7314453 22.4140625,30.7578125 28.0136719,45.9472656 C33.6132812,61.1367187 42.4433594,61.1367187 42.4433594,61.1367187 Z" id="Path-3" fill="#073B4C"></path>
                        <path d="M82.0909538,61.1367187 C82.0909538,61.1367187 95.1378288,4.1484375 40.1847038,32.5175781 C58.7120476,29.7314453 62.0616569,30.7578125 67.6612663,45.9472656 C73.2608757,61.1367188 82.0909538,61.1367187 82.0909538,61.1367187 Z" id="Path-3-Copy" fill="#073B4C" transform="translate(61.814032, 42.868427) scale(-1, 1) translate(-61.814032, -42.868427) "></path>
                        <circle id="Oval" fill="#073B4C" cx="36" cy="18" r="2"></circle>
                        <circle id="Oval-Copy-3" fill="#073B4C" cx="36" cy="24" r="2"></circle>
                        <circle id="Oval-Copy-6" fill="#073B4C" cx="36" cy="30" r="2"></circle>
                        <circle id="Oval-Copy-9" fill="#073B4C" cx="36" cy="36" r="2"></circle>
                        <circle id="Oval-Copy" fill="#073B4C" cx="42" cy="18" r="2"></circle>
                        <circle id="Oval-Copy-12" fill="#073B4C" cx="42" cy="12" r="2"></circle>
                        <circle id="Oval-Copy-4" fill="#073B4C" cx="42" cy="24" r="2"></circle>
                        <circle id="Oval-Copy-7" fill="#073B4C" cx="42" cy="30" r="2"></circle>
                        <circle id="Oval-Copy-10" fill="#073B4C" cx="42" cy="36" r="2"></circle>
                        <circle id="Oval-Copy-2" fill="#073B4C" cx="48" cy="18" r="2"></circle>
                        <circle id="Oval-Copy-5" fill="#073B4C" cx="48" cy="24" r="2"></circle>
                        <circle id="Oval-Copy-8" fill="#073B4C" cx="48" cy="30" r="2"></circle>
                        <circle id="Oval-Copy-11" fill="#073B4C" cx="48" cy="36" r="2"></circle>
                    </g>
                    <g id="maize-copy" transform="translate(253.000000, 67.000000)">
                        <path d="M42.0837155,58.1142125 C13.4337876,23.5003413 42.1191406,0.156982422 42.1191406,0.156982422 C42.1191406,0.156982422 42.1192367,0.188826104 42.1194174,0.252374493 C43.2398092,1.18444372 70.1795963,24.1849002 42.119253,58.0864955 C42.1192156,58.1099843 42.1191781,58.1334799 42.1191406,58.1569824 C42.1094224,58.1452574 42.0997107,58.1335336 42.0900057,58.1218111 C42.0837322,58.1243148 42.0837241,58.1192587 42.083716,58.1142029 Z" id="Combined-Shape" stroke="#073B4C" stroke-width="2" stroke-linecap="square"></path>
                        <path d="M42.4433594,61.1367187 C42.4433594,61.1367187 40.0214844,6.8984375 0.537109375,32.5175781 C19.0644531,29.7314453 22.4140625,30.7578125 28.0136719,45.9472656 C33.6132812,61.1367187 42.4433594,61.1367187 42.4433594,61.1367187 Z" id="Path-3" fill="#073B4C"></path>
                        <path d="M82.0909538,61.1367187 C82.0909538,61.1367187 95.1378288,4.1484375 40.1847038,32.5175781 C58.7120476,29.7314453 62.0616569,30.7578125 67.6612663,45.9472656 C73.2608757,61.1367188 82.0909538,61.1367187 82.0909538,61.1367187 Z" id="Path-3-Copy" fill="#073B4C" transform="translate(61.814032, 42.868427) scale(-1, 1) translate(-61.814032, -42.868427) "></path>
                        <circle id="Oval" fill="#073B4C" cx="36" cy="18" r="2"></circle>
                        <circle id="Oval-Copy-3" fill="#073B4C" cx="36" cy="24" r="2"></circle>
                        <circle id="Oval-Copy-6" fill="#073B4C" cx="36" cy="30" r="2"></circle>
                        <circle id="Oval-Copy-9" fill="#073B4C" cx="36" cy="36" r="2"></circle>
                        <circle id="Oval-Copy" fill="#073B4C" cx="42" cy="18" r="2"></circle>
                        <circle id="Oval-Copy-12" fill="#073B4C" cx="42" cy="12" r="2"></circle>
                        <circle id="Oval-Copy-4" fill="#073B4C" cx="42" cy="24" r="2"></circle>
                        <circle id="Oval-Copy-7" fill="#073B4C" cx="42" cy="30" r="2"></circle>
                        <circle id="Oval-Copy-10" fill="#073B4C" cx="42" cy="36" r="2"></circle>
                        <circle id="Oval-Copy-2" fill="#073B4C" cx="48" cy="18" r="2"></circle>
                        <circle id="Oval-Copy-5" fill="#073B4C" cx="48" cy="24" r="2"></circle>
                        <circle id="Oval-Copy-8" fill="#073B4C" cx="48" cy="30" r="2"></circle>
                        <circle id="Oval-Copy-11" fill="#073B4C" cx="48" cy="36" r="2"></circle>
                    </g>
                    <g id="maize-copy-3" transform="translate(635.000000, 67.000000)">
                        <path d="M42.0837155,58.1142125 C13.4337876,23.5003413 42.1191406,0.156982422 42.1191406,0.156982422 C42.1191406,0.156982422 42.1192367,0.188826104 42.1194174,0.252374493 C43.2398092,1.18444372 70.1795963,24.1849002 42.119253,58.0864955 C42.1192156,58.1099843 42.1191781,58.1334799 42.1191406,58.1569824 C42.1094224,58.1452574 42.0997107,58.1335336 42.0900057,58.1218111 C42.0837322,58.1243148 42.0837241,58.1192587 42.083716,58.1142029 Z" id="Combined-Shape" stroke="#073B4C" stroke-width="2" stroke-linecap="square"></path>
                        <path d="M42.4433594,61.1367187 C42.4433594,61.1367187 40.0214844,6.8984375 0.537109375,32.5175781 C19.0644531,29.7314453 22.4140625,30.7578125 28.0136719,45.9472656 C33.6132812,61.1367187 42.4433594,61.1367187 42.4433594,61.1367187 Z" id="Path-3" fill="#073B4C"></path>
                        <path d="M82.0909538,61.1367187 C82.0909538,61.1367187 95.1378288,4.1484375 40.1847038,32.5175781 C58.7120476,29.7314453 62.0616569,30.7578125 67.6612663,45.9472656 C73.2608757,61.1367188 82.0909538,61.1367187 82.0909538,61.1367187 Z" id="Path-3-Copy" fill="#073B4C" transform="translate(61.814032, 42.868427) scale(-1, 1) translate(-61.814032, -42.868427) "></path>
                        <circle id="Oval" fill="#073B4C" cx="36" cy="18" r="2"></circle>
                        <circle id="Oval-Copy-3" fill="#073B4C" cx="36" cy="24" r="2"></circle>
                        <circle id="Oval-Copy-6" fill="#073B4C" cx="36" cy="30" r="2"></circle>
                        <circle id="Oval-Copy-9" fill="#073B4C" cx="36" cy="36" r="2"></circle>
                        <circle id="Oval-Copy" fill="#073B4C" cx="42" cy="18" r="2"></circle>
                        <circle id="Oval-Copy-12" fill="#073B4C" cx="42" cy="12" r="2"></circle>
                        <circle id="Oval-Copy-4" fill="#073B4C" cx="42" cy="24" r="2"></circle>
                        <circle id="Oval-Copy-7" fill="#073B4C" cx="42" cy="30" r="2"></circle>
                        <circle id="Oval-Copy-10" fill="#073B4C" cx="42" cy="36" r="2"></circle>
                        <circle id="Oval-Copy-2" fill="#073B4C" cx="48" cy="18" r="2"></circle>
                        <circle id="Oval-Copy-5" fill="#073B4C" cx="48" cy="24" r="2"></circle>
                        <circle id="Oval-Copy-8" fill="#073B4C" cx="48" cy="30" r="2"></circle>
                        <circle id="Oval-Copy-11" fill="#073B4C" cx="48" cy="36" r="2"></circle>
                    </g>
                    <g id="wheat" transform="translate(118.000000, 42.000000)" fill="#073B4C">
                        <path d="M18.0969253,0 C18.0969253,0 6.71658154,17 17.9660742,17 C29.2155668,17 18.0969253,0 18.0969253,0 Z" id="Path-4"></path>
                        <path d="M10.0969253,12 C10.0969253,12 -1.28341846,29 9.96607418,29 C21.2155668,29 10.0969253,12 10.0969253,12 Z" id="Path-4-Copy" transform="translate(10.000000, 20.500000) rotate(-45.000000) translate(-10.000000, -20.500000) "></path>
                        <path d="M27.0969253,12 C27.0969253,12 15.7165815,29 26.9660742,29 C38.2155668,29 27.0969253,12 27.0969253,12 Z" id="Path-4-Copy-2" transform="translate(27.000000, 20.500000) scale(-1, 1) rotate(-45.000000) translate(-27.000000, -20.500000) "></path>
                        <path d="M10.0969253,25 C10.0969253,25 -1.28341846,42 9.96607418,42 C21.2155668,42 10.0969253,25 10.0969253,25 Z" id="Path-4-Copy-4" transform="translate(10.000000, 33.500000) rotate(-45.000000) translate(-10.000000, -33.500000) "></path>
                        <path d="M27.0969253,25 C27.0969253,25 15.7165815,42 26.9660742,42 C38.2155668,42 27.0969253,25 27.0969253,25 Z" id="Path-4-Copy-3" transform="translate(27.000000, 33.500000) scale(-1, 1) rotate(-45.000000) translate(-27.000000, -33.500000) "></path>
                        <path d="M10.0969253,38 C10.0969253,38 -1.28341846,55 9.96607418,55 C21.2155668,55 10.0969253,38 10.0969253,38 Z" id="Path-4-Copy-6" transform="translate(10.000000, 46.500000) rotate(-45.000000) translate(-10.000000, -46.500000) "></path>
                        <path d="M27.0969253,38 C27.0969253,38 15.7165815,55 26.9660742,55 C38.2155668,55 27.0969253,38 27.0969253,38 Z" id="Path-4-Copy-5" transform="translate(27.000000, 46.500000) scale(-1, 1) rotate(-45.000000) translate(-27.000000, -46.500000) "></path>
                        <path d="M18.7322159,55 L20.2677839,55 L20.9948305,82.4613093 C21.0173291,83.3111047 20.3539832,84 19.4999999,84 L19.4999999,84 C18.6519291,84 17.9826537,83.3117454 18.0051693,82.4613093 L18.7322159,55 Z" id="Rectangle-2"></path>
                    </g>
                    <g id="wheat-copy-3" transform="translate(500.000000, 42.000000)" fill="#073B4C">
                        <path d="M18.0969253,0 C18.0969253,0 6.71658154,17 17.9660742,17 C29.2155668,17 18.0969253,0 18.0969253,0 Z" id="Path-4"></path>
                        <path d="M10.0969253,12 C10.0969253,12 -1.28341846,29 9.96607418,29 C21.2155668,29 10.0969253,12 10.0969253,12 Z" id="Path-4-Copy" transform="translate(10.000000, 20.500000) rotate(-45.000000) translate(-10.000000, -20.500000) "></path>
                        <path d="M27.0969253,12 C27.0969253,12 15.7165815,29 26.9660742,29 C38.2155668,29 27.0969253,12 27.0969253,12 Z" id="Path-4-Copy-2" transform="translate(27.000000, 20.500000) scale(-1, 1) rotate(-45.000000) translate(-27.000000, -20.500000) "></path>
                        <path d="M10.0969253,25 C10.0969253,25 -1.28341846,42 9.96607418,42 C21.2155668,42 10.0969253,25 10.0969253,25 Z" id="Path-4-Copy-4" transform="translate(10.000000, 33.500000) rotate(-45.000000) translate(-10.000000, -33.500000) "></path>
                        <path d="M27.0969253,25 C27.0969253,25 15.7165815,42 26.9660742,42 C38.2155668,42 27.0969253,25 27.0969253,25 Z" id="Path-4-Copy-3" transform="translate(27.000000, 33.500000) scale(-1, 1) rotate(-45.000000) translate(-27.000000, -33.500000) "></path>
                        <path d="M10.0969253,38 C10.0969253,38 -1.28341846,55 9.96607418,55 C21.2155668,55 10.0969253,38 10.0969253,38 Z" id="Path-4-Copy-6" transform="translate(10.000000, 46.500000) rotate(-45.000000) translate(-10.000000, -46.500000) "></path>
                        <path d="M27.0969253,38 C27.0969253,38 15.7165815,55 26.9660742,55 C38.2155668,55 27.0969253,38 27.0969253,38 Z" id="Path-4-Copy-5" transform="translate(27.000000, 46.500000) scale(-1, 1) rotate(-45.000000) translate(-27.000000, -46.500000) "></path>
                        <path d="M18.7322159,55 L20.2677839,55 L20.9948305,82.4613093 C21.0173291,83.3111047 20.3539832,84 19.4999999,84 L19.4999999,84 C18.6519291,84 17.9826537,83.3117454 18.0051693,82.4613093 L18.7322159,55 Z" id="Rectangle-2"></path>
                    </g>
                    <g id="wheat-copy-2" transform="translate(333.000000, 87.000000)" fill="#073B4C">
                        <path d="M18.0969253,0 C18.0969253,0 6.71658154,17 17.9660742,17 C29.2155668,17 18.0969253,0 18.0969253,0 Z" id="Path-4"></path>
                        <path d="M10.0969253,12 C10.0969253,12 -1.28341846,29 9.96607418,29 C21.2155668,29 10.0969253,12 10.0969253,12 Z" id="Path-4-Copy" transform="translate(10.000000, 20.500000) rotate(-45.000000) translate(-10.000000, -20.500000) "></path>
                        <path d="M27.0969253,12 C27.0969253,12 15.7165815,29 26.9660742,29 C38.2155668,29 27.0969253,12 27.0969253,12 Z" id="Path-4-Copy-2" transform="translate(27.000000, 20.500000) scale(-1, 1) rotate(-45.000000) translate(-27.000000, -20.500000) "></path>
                        <path d="M10.0969253,25 C10.0969253,25 -1.28341846,42 9.96607418,42 C21.2155668,42 10.0969253,25 10.0969253,25 Z" id="Path-4-Copy-4" transform="translate(10.000000, 33.500000) rotate(-45.000000) translate(-10.000000, -33.500000) "></path>
                        <path d="M27.0969253,25 C27.0969253,25 15.7165815,42 26.9660742,42 C38.2155668,42 27.0969253,25 27.0969253,25 Z" id="Path-4-Copy-3" transform="translate(27.000000, 33.500000) scale(-1, 1) rotate(-45.000000) translate(-27.000000, -33.500000) "></path>
                        <path d="M10.0969253,38 C10.0969253,38 -1.28341846,55 9.96607418,55 C21.2155668,55 10.0969253,38 10.0969253,38 Z" id="Path-4-Copy-6" transform="translate(10.000000, 46.500000) rotate(-45.000000) translate(-10.000000, -46.500000) "></path>
                        <path d="M27.0969253,38 C27.0969253,38 15.7165815,55 26.9660742,55 C38.2155668,55 27.0969253,38 27.0969253,38 Z" id="Path-4-Copy-5" transform="translate(27.000000, 46.500000) scale(-1, 1) rotate(-45.000000) translate(-27.000000, -46.500000) "></path>
                        <path d="M18.7322159,55 L20.2677839,55 L20.9948305,82.4613093 C21.0173291,83.3111047 20.3539832,84 19.4999999,84 L19.4999999,84 C18.6519291,84 17.9826537,83.3117454 18.0051693,82.4613093 L18.7322159,55 Z" id="Rectangle-2"></path>
                    </g>
                    <g id="wheat-copy-4" transform="translate(715.000000, 87.000000)" fill="#073B4C">
                        <path d="M18.0969253,0 C18.0969253,0 6.71658154,17 17.9660742,17 C29.2155668,17 18.0969253,0 18.0969253,0 Z" id="Path-4"></path>
                        <path d="M10.0969253,12 C10.0969253,12 -1.28341846,29 9.96607418,29 C21.2155668,29 10.0969253,12 10.0969253,12 Z" id="Path-4-Copy" transform="translate(10.000000, 20.500000) rotate(-45.000000) translate(-10.000000, -20.500000) "></path>
                        <path d="M27.0969253,12 C27.0969253,12 15.7165815,29 26.9660742,29 C38.2155668,29 27.0969253,12 27.0969253,12 Z" id="Path-4-Copy-2" transform="translate(27.000000, 20.500000) scale(-1, 1) rotate(-45.000000) translate(-27.000000, -20.500000) "></path>
                        <path d="M10.0969253,25 C10.0969253,25 -1.28341846,42 9.96607418,42 C21.2155668,42 10.0969253,25 10.0969253,25 Z" id="Path-4-Copy-4" transform="translate(10.000000, 33.500000) rotate(-45.000000) translate(-10.000000, -33.500000) "></path>
                        <path d="M27.0969253,25 C27.0969253,25 15.7165815,42 26.9660742,42 C38.2155668,42 27.0969253,25 27.0969253,25 Z" id="Path-4-Copy-3" transform="translate(27.000000, 33.500000) scale(-1, 1) rotate(-45.000000) translate(-27.000000, -33.500000) "></path>
                        <path d="M10.0969253,38 C10.0969253,38 -1.28341846,55 9.96607418,55 C21.2155668,55 10.0969253,38 10.0969253,38 Z" id="Path-4-Copy-6" transform="translate(10.000000, 46.500000) rotate(-45.000000) translate(-10.000000, -46.500000) "></path>
                        <path d="M27.0969253,38 C27.0969253,38 15.7165815,55 26.9660742,55 C38.2155668,55 27.0969253,38 27.0969253,38 Z" id="Path-4-Copy-5" transform="translate(27.000000, 46.500000) scale(-1, 1) rotate(-45.000000) translate(-27.000000, -46.500000) "></path>
                        <path d="M18.7322159,55 L20.2677839,55 L20.9948305,82.4613093 C21.0173291,83.3111047 20.3539832,84 19.4999999,84 L19.4999999,84 C18.6519291,84 17.9826537,83.3117454 18.0051693,82.4613093 L18.7322159,55 Z" id="Rectangle-2"></path>
                    </g>
                    <g id="wheat-copy" transform="translate(194.000000, 0.000000)" fill="#073B4C">
                        <path d="M10.0969253,38 C10.0969253,38 -1.28341846,55 9.96607418,55 C21.2155668,55 10.0969253,38 10.0969253,38 Z" id="Path-4-Copy-6" transform="translate(10.000000, 46.500000) rotate(-45.000000) translate(-10.000000, -46.500000) "></path>
                        <path d="M27.0969253,38 C27.0969253,38 15.7165815,55 26.9660742,55 C38.2155668,55 27.0969253,38 27.0969253,38 Z" id="Path-4-Copy-5" transform="translate(27.000000, 46.500000) scale(-1, 1) rotate(-45.000000) translate(-27.000000, -46.500000) "></path>
                        <path d="M18.7322159,55 L20.2677839,55 L20.9948305,82.4613093 C21.0173291,83.3111047 20.3539832,84 19.4999999,84 L19.4999999,84 C18.6519291,84 17.9826537,83.3117454 18.0051693,82.4613093 L18.7322159,55 Z" id="Rectangle-2"></path>
                    </g>
                    <g id="wheat-copy-5" transform="translate(576.000000, 0.000000)" fill="#073B4C">
                        <path d="M10.0969253,38 C10.0969253,38 -1.28341846,55 9.96607418,55 C21.2155668,55 10.0969253,38 10.0969253,38 Z" id="Path-4-Copy-6" transform="translate(10.000000, 46.500000) rotate(-45.000000) translate(-10.000000, -46.500000) "></path>
                        <path d="M27.0969253,38 C27.0969253,38 15.7165815,55 26.9660742,55 C38.2155668,55 27.0969253,38 27.0969253,38 Z" id="Path-4-Copy-5" transform="translate(27.000000, 46.500000) scale(-1, 1) rotate(-45.000000) translate(-27.000000, -46.500000) "></path>
                        <path d="M18.7322159,55 L20.2677839,55 L20.9948305,82.4613093 C21.0173291,83.3111047 20.3539832,84 19.4999999,84 L19.4999999,84 C18.6519291,84 17.9826537,83.3117454 18.0051693,82.4613093 L18.7322159,55 Z" id="Rectangle-2"></path>
                    </g>
                    <circle id="Oval-2" stroke="#073B4C" stroke-width="2" stroke-linecap="square" cx="109" cy="136" r="5"></circle>
                    <circle id="Oval-2-Copy-5" stroke="#073B4C" stroke-width="2" stroke-linecap="square" cx="491" cy="136" r="5"></circle>
                    <circle id="Oval-2-Copy-3" stroke="#073B4C" stroke-width="2" stroke-linecap="square" cx="268" cy="57" r="5"></circle>
                    <circle id="Oval-2-Copy-6" stroke="#073B4C" stroke-width="2" stroke-linecap="square" cx="650" cy="57" r="5"></circle>
                    <circle id="Oval-2-Copy-4" stroke="#073B4C" stroke-width="2" stroke-linecap="square" cx="323" cy="129" r="5"></circle>
                    <circle id="Oval-2-Copy-7" stroke="#073B4C" stroke-width="2" stroke-linecap="square" cx="705" cy="129" r="5"></circle>
                    <circle id="Oval-2-Copy" stroke="#073B4C" stroke-width="2" stroke-linecap="square" cx="161" cy="106" r="5"></circle>
                    <circle id="Oval-2-Copy-8" stroke="#073B4C" stroke-width="2" stroke-linecap="square" cx="543" cy="106" r="5"></circle>
                    <circle id="Oval-2-Copy-2" stroke="#073B4C" stroke-width="2" stroke-linecap="square" cx="212" cy="126" r="5"></circle>
                    <circle id="Oval-2-Copy-9" stroke="#073B4C" stroke-width="2" stroke-linecap="square" cx="594" cy="126" r="5"></circle>
                    <g id="soybeans" transform="translate(178.000000, 78.000000)">
                        <path d="M0.456501719,41.213931 C0.160595652,39.8924352 0,38.4749011 0,37 C0,35.1649139 0.248611324,33.418635 0.697131872,31.835649 C1.09030551,29.784727 0.877965976,27.4885637 0.629519451,25.9188148 C0.223695606,24.4014993 0,22.7407032 0,21 C0,13.8202983 3.80557963,8 8.5,8 C13.1944204,8 17,13.8202983 17,21 C17,22.6848098 16.7904393,24.2947618 16.4090084,25.7722117 C16.1627437,27.3790485 15.944145,29.8391348 16.3826319,32.1268661 C16.7807674,33.6318109 17,35.2767491 17,37 C17,38.8033591 16.7599109,40.5209552 16.3259522,42.0820996 C15.9945765,43.732659 15.5366834,46.987235 16.3134766,49.8262939 C16.3389715,49.9194739 16.3587688,50.0076705 16.37312,50.0910655 C16.7772742,51.6057093 17,53.2630744 17,55 C17,62.1797017 13.1944204,68 8.5,68 C3.80557963,68 0,62.1797017 0,55 C0,53.2972532 0.2140465,51.6709667 0.603232431,50.1806454 C0.611222139,50.1376039 0.620905235,50.092944 0.632324219,50.0466309 C1.28743359,47.3896393 0.776109875,43.2398162 0.456501719,41.213931 Z" id="Combined-Shape" fill="#073B4C"></path>
                        <ellipse id="Oval-3-Copy-3" fill="#4AD4A1" cx="8" cy="18.5" rx="5" ry="7.5"></ellipse>
                        <ellipse id="Oval-3-Copy-4" fill="#4AD4A1" cx="7.5" cy="37" rx="4.5" ry="7"></ellipse>
                        <ellipse id="Oval-3-Copy-5" fill="#4AD4A1" cx="9" cy="56" rx="6" ry="9"></ellipse>
                        <path d="M13.8493719,11.1270883 C11.9736879,13.2784061 10.5824578,16.4476872 10.1351365,20.090826 C9.92299819,21.8185542 9.94262627,23.4942327 10.1605109,25.0496958 C10.2158013,26.6380221 10.1467262,28.9429478 9.50653868,30.9306667 C8.86844387,32.4471925 8.40886779,34.1501568 8.18522705,35.9715644 C8.00548183,37.4354718 7.99212647,38.8620116 8.12477708,40.2097189 C8.19510962,42.259454 8.19688579,46.4406596 7.22285369,48.9980086 C7.20587567,49.0425849 7.19082207,49.0857319 7.17764648,49.1274788 L7.17764648,49.1274788 C6.609737,50.5592617 6.1990915,52.1473404 5.99157887,53.8373952 C5.48174063,57.9896944 6.31058295,61.8413546 8.01293531,64.4461288 C8.03662888,64.6708371 8.14718848,64.8577403 8.36865234,64.9916992 C8.38582677,65.0020877 8.40291006,65.0125619 8.41990428,65.0231219 C8.94660561,65.7147834 9.54243604,66.2975752 10.1963707,66.7490709 C11.020593,67.854249 11.8282586,69.3061857 13.1269531,71.1225586 C13.6296064,69.8010877 15.2573373,68.1771492 16.6761189,66.9427398 C17.4602919,66.4982881 18.2061552,65.8954294 18.8926618,65.1590883 C18.979626,65.094696 19.0273437,65.0603027 19.0273437,65.0603027 L19.0307124,65.0083282 C20.9669129,62.8557289 22.4080611,59.6295303 22.8648635,55.909174 C23.0765414,54.1851951 23.0574578,52.5130404 22.8409048,50.9604325 C22.8368238,50.8759102 22.8279225,50.7859583 22.8139734,50.6903658 C22.3889646,47.7778015 23.2400776,44.6032877 23.7701359,43.0054159 C24.3911156,41.5087943 24.8387374,39.8332604 25.0585116,38.0433433 C25.2685231,36.3329372 25.2513922,34.6735424 25.039631,33.1312947 C24.8832167,30.8071778 25.3999952,28.3920691 25.8402484,26.8272215 C26.398892,25.4072689 26.8030945,23.8348563 27.0084211,22.1626048 C27.5226821,17.974285 26.6749362,14.0918429 24.9425649,11.4863652 L24.9504395,11.4772949 C24.9504395,11.4772949 24.9206757,11.4412697 24.8658233,11.3726275 C24.6758027,11.095104 24.4755308,10.8326624 24.2656104,10.5865287 C22.9339657,8.7756018 20.125,4.53557215 20.125,0.991210938 C15.8344727,8.14868164 17.472168,7.97851562 13.8354492,10.9921875 C13.839466,11.0375118 13.8441113,11.0824779 13.8493719,11.1270883 Z" id="Combined-Shape" fill="#073B4C"></path>
                    </g>
                    <g id="soybeans-copy-3" transform="translate(560.000000, 78.000000)">
                        <path d="M0.456501719,41.213931 C0.160595652,39.8924352 0,38.4749011 0,37 C0,35.1649139 0.248611324,33.418635 0.697131872,31.835649 C1.09030551,29.784727 0.877965976,27.4885637 0.629519451,25.9188148 C0.223695606,24.4014993 0,22.7407032 0,21 C0,13.8202983 3.80557963,8 8.5,8 C13.1944204,8 17,13.8202983 17,21 C17,22.6848098 16.7904393,24.2947618 16.4090084,25.7722117 C16.1627437,27.3790485 15.944145,29.8391348 16.3826319,32.1268661 C16.7807674,33.6318109 17,35.2767491 17,37 C17,38.8033591 16.7599109,40.5209552 16.3259522,42.0820996 C15.9945765,43.732659 15.5366834,46.987235 16.3134766,49.8262939 C16.3389715,49.9194739 16.3587688,50.0076705 16.37312,50.0910655 C16.7772742,51.6057093 17,53.2630744 17,55 C17,62.1797017 13.1944204,68 8.5,68 C3.80557963,68 0,62.1797017 0,55 C0,53.2972532 0.2140465,51.6709667 0.603232431,50.1806454 C0.611222139,50.1376039 0.620905235,50.092944 0.632324219,50.0466309 C1.28743359,47.3896393 0.776109875,43.2398162 0.456501719,41.213931 Z" id="Combined-Shape" fill="#073B4C"></path>
                        <ellipse id="Oval-3-Copy-3" fill="#4AD4A1" cx="8" cy="18.5" rx="5" ry="7.5"></ellipse>
                        <ellipse id="Oval-3-Copy-4" fill="#4AD4A1" cx="7.5" cy="37" rx="4.5" ry="7"></ellipse>
                        <ellipse id="Oval-3-Copy-5" fill="#4AD4A1" cx="9" cy="56" rx="6" ry="9"></ellipse>
                        <path d="M13.8493719,11.1270883 C11.9736879,13.2784061 10.5824578,16.4476872 10.1351365,20.090826 C9.92299819,21.8185542 9.94262627,23.4942327 10.1605109,25.0496958 C10.2158013,26.6380221 10.1467262,28.9429478 9.50653868,30.9306667 C8.86844387,32.4471925 8.40886779,34.1501568 8.18522705,35.9715644 C8.00548183,37.4354718 7.99212647,38.8620116 8.12477708,40.2097189 C8.19510962,42.259454 8.19688579,46.4406596 7.22285369,48.9980086 C7.20587567,49.0425849 7.19082207,49.0857319 7.17764648,49.1274788 L7.17764648,49.1274788 C6.609737,50.5592617 6.1990915,52.1473404 5.99157887,53.8373952 C5.48174063,57.9896944 6.31058295,61.8413546 8.01293531,64.4461288 C8.03662888,64.6708371 8.14718848,64.8577403 8.36865234,64.9916992 C8.38582677,65.0020877 8.40291006,65.0125619 8.41990428,65.0231219 C8.94660561,65.7147834 9.54243604,66.2975752 10.1963707,66.7490709 C11.020593,67.854249 11.8282586,69.3061857 13.1269531,71.1225586 C13.6296064,69.8010877 15.2573373,68.1771492 16.6761189,66.9427398 C17.4602919,66.4982881 18.2061552,65.8954294 18.8926618,65.1590883 C18.979626,65.094696 19.0273437,65.0603027 19.0273437,65.0603027 L19.0307124,65.0083282 C20.9669129,62.8557289 22.4080611,59.6295303 22.8648635,55.909174 C23.0765414,54.1851951 23.0574578,52.5130404 22.8409048,50.9604325 C22.8368238,50.8759102 22.8279225,50.7859583 22.8139734,50.6903658 C22.3889646,47.7778015 23.2400776,44.6032877 23.7701359,43.0054159 C24.3911156,41.5087943 24.8387374,39.8332604 25.0585116,38.0433433 C25.2685231,36.3329372 25.2513922,34.6735424 25.039631,33.1312947 C24.8832167,30.8071778 25.3999952,28.3920691 25.8402484,26.8272215 C26.398892,25.4072689 26.8030945,23.8348563 27.0084211,22.1626048 C27.5226821,17.974285 26.6749362,14.0918429 24.9425649,11.4863652 L24.9504395,11.4772949 C24.9504395,11.4772949 24.9206757,11.4412697 24.8658233,11.3726275 C24.6758027,11.095104 24.4755308,10.8326624 24.2656104,10.5865287 C22.9339657,8.7756018 20.125,4.53557215 20.125,0.991210938 C15.8344727,8.14868164 17.472168,7.97851562 13.8354492,10.9921875 C13.839466,11.0375118 13.8441113,11.0824779 13.8493719,11.1270883 Z" id="Combined-Shape" fill="#073B4C"></path>
                    </g>
                    <g id="soybeans-copy-2" transform="translate(0.000000, 67.000000)">
                        <path d="M0.456501719,41.213931 C0.160595652,39.8924352 0,38.4749011 0,37 C0,35.1649139 0.248611324,33.418635 0.697131872,31.835649 C1.09030551,29.784727 0.877965976,27.4885637 0.629519451,25.9188148 C0.223695606,24.4014993 0,22.7407032 0,21 C0,13.8202983 3.80557963,8 8.5,8 C13.1944204,8 17,13.8202983 17,21 C17,22.6848098 16.7904393,24.2947618 16.4090084,25.7722117 C16.1627437,27.3790485 15.944145,29.8391348 16.3826319,32.1268661 C16.7807674,33.6318109 17,35.2767491 17,37 C17,38.8033591 16.7599109,40.5209552 16.3259522,42.0820996 C15.9945765,43.732659 15.5366834,46.987235 16.3134766,49.8262939 C16.3389715,49.9194739 16.3587688,50.0076705 16.37312,50.0910655 C16.7772742,51.6057093 17,53.2630744 17,55 C17,62.1797017 13.1944204,68 8.5,68 C3.80557963,68 0,62.1797017 0,55 C0,53.2972532 0.2140465,51.6709667 0.603232431,50.1806454 C0.611222139,50.1376039 0.620905235,50.092944 0.632324219,50.0466309 C1.28743359,47.3896393 0.776109875,43.2398162 0.456501719,41.213931 Z" id="Combined-Shape" fill="#073B4C"></path>
                        <ellipse id="Oval-3-Copy-3" fill="#4AD4A1" cx="8" cy="18.5" rx="5" ry="7.5"></ellipse>
                        <ellipse id="Oval-3-Copy-4" fill="#4AD4A1" cx="7.5" cy="37" rx="4.5" ry="7"></ellipse>
                        <ellipse id="Oval-3-Copy-5" fill="#4AD4A1" cx="9" cy="56" rx="6" ry="9"></ellipse>
                        <path d="M13.8493719,11.1270883 C11.9736879,13.2784061 10.5824578,16.4476872 10.1351365,20.090826 C9.92299819,21.8185542 9.94262627,23.4942327 10.1605109,25.0496958 C10.2158013,26.6380221 10.1467262,28.9429478 9.50653868,30.9306667 C8.86844387,32.4471925 8.40886779,34.1501568 8.18522705,35.9715644 C8.00548183,37.4354718 7.99212647,38.8620116 8.12477708,40.2097189 C8.19510962,42.259454 8.19688579,46.4406596 7.22285369,48.9980086 C7.20587567,49.0425849 7.19082207,49.0857319 7.17764648,49.1274788 L7.17764648,49.1274788 C6.609737,50.5592617 6.1990915,52.1473404 5.99157887,53.8373952 C5.48174063,57.9896944 6.31058295,61.8413546 8.01293531,64.4461288 C8.03662888,64.6708371 8.14718848,64.8577403 8.36865234,64.9916992 C8.38582677,65.0020877 8.40291006,65.0125619 8.41990428,65.0231219 C8.94660561,65.7147834 9.54243604,66.2975752 10.1963707,66.7490709 C11.020593,67.854249 11.8282586,69.3061857 13.1269531,71.1225586 C13.6296064,69.8010877 15.2573373,68.1771492 16.6761189,66.9427398 C17.4602919,66.4982881 18.2061552,65.8954294 18.8926618,65.1590883 C18.979626,65.094696 19.0273437,65.0603027 19.0273437,65.0603027 L19.0307124,65.0083282 C20.9669129,62.8557289 22.4080611,59.6295303 22.8648635,55.909174 C23.0765414,54.1851951 23.0574578,52.5130404 22.8409048,50.9604325 C22.8368238,50.8759102 22.8279225,50.7859583 22.8139734,50.6903658 C22.3889646,47.7778015 23.2400776,44.6032877 23.7701359,43.0054159 C24.3911156,41.5087943 24.8387374,39.8332604 25.0585116,38.0433433 C25.2685231,36.3329372 25.2513922,34.6735424 25.039631,33.1312947 C24.8832167,30.8071778 25.3999952,28.3920691 25.8402484,26.8272215 C26.398892,25.4072689 26.8030945,23.8348563 27.0084211,22.1626048 C27.5226821,17.974285 26.6749362,14.0918429 24.9425649,11.4863652 L24.9504395,11.4772949 C24.9504395,11.4772949 24.9206757,11.4412697 24.8658233,11.3726275 C24.6758027,11.095104 24.4755308,10.8326624 24.2656104,10.5865287 C22.9339657,8.7756018 20.125,4.53557215 20.125,0.991210938 C15.8344727,8.14868164 17.472168,7.97851562 13.8354492,10.9921875 C13.839466,11.0375118 13.8441113,11.0824779 13.8493719,11.1270883 Z" id="Combined-Shape" fill="#073B4C"></path>
                    </g>
                    <g id="soybeans-copy-4" transform="translate(382.000000, 67.000000)">
                        <path d="M0.456501719,41.213931 C0.160595652,39.8924352 0,38.4749011 0,37 C0,35.1649139 0.248611324,33.418635 0.697131872,31.835649 C1.09030551,29.784727 0.877965976,27.4885637 0.629519451,25.9188148 C0.223695606,24.4014993 0,22.7407032 0,21 C0,13.8202983 3.80557963,8 8.5,8 C13.1944204,8 17,13.8202983 17,21 C17,22.6848098 16.7904393,24.2947618 16.4090084,25.7722117 C16.1627437,27.3790485 15.944145,29.8391348 16.3826319,32.1268661 C16.7807674,33.6318109 17,35.2767491 17,37 C17,38.8033591 16.7599109,40.5209552 16.3259522,42.0820996 C15.9945765,43.732659 15.5366834,46.987235 16.3134766,49.8262939 C16.3389715,49.9194739 16.3587688,50.0076705 16.37312,50.0910655 C16.7772742,51.6057093 17,53.2630744 17,55 C17,62.1797017 13.1944204,68 8.5,68 C3.80557963,68 0,62.1797017 0,55 C0,53.2972532 0.2140465,51.6709667 0.603232431,50.1806454 C0.611222139,50.1376039 0.620905235,50.092944 0.632324219,50.0466309 C1.28743359,47.3896393 0.776109875,43.2398162 0.456501719,41.213931 Z" id="Combined-Shape" fill="#073B4C"></path>
                        <ellipse id="Oval-3-Copy-3" fill="#4AD4A1" cx="8" cy="18.5" rx="5" ry="7.5"></ellipse>
                        <ellipse id="Oval-3-Copy-4" fill="#4AD4A1" cx="7.5" cy="37" rx="4.5" ry="7"></ellipse>
                        <ellipse id="Oval-3-Copy-5" fill="#4AD4A1" cx="9" cy="56" rx="6" ry="9"></ellipse>
                        <path d="M13.8493719,11.1270883 C11.9736879,13.2784061 10.5824578,16.4476872 10.1351365,20.090826 C9.92299819,21.8185542 9.94262627,23.4942327 10.1605109,25.0496958 C10.2158013,26.6380221 10.1467262,28.9429478 9.50653868,30.9306667 C8.86844387,32.4471925 8.40886779,34.1501568 8.18522705,35.9715644 C8.00548183,37.4354718 7.99212647,38.8620116 8.12477708,40.2097189 C8.19510962,42.259454 8.19688579,46.4406596 7.22285369,48.9980086 C7.20587567,49.0425849 7.19082207,49.0857319 7.17764648,49.1274788 L7.17764648,49.1274788 C6.609737,50.5592617 6.1990915,52.1473404 5.99157887,53.8373952 C5.48174063,57.9896944 6.31058295,61.8413546 8.01293531,64.4461288 C8.03662888,64.6708371 8.14718848,64.8577403 8.36865234,64.9916992 C8.38582677,65.0020877 8.40291006,65.0125619 8.41990428,65.0231219 C8.94660561,65.7147834 9.54243604,66.2975752 10.1963707,66.7490709 C11.020593,67.854249 11.8282586,69.3061857 13.1269531,71.1225586 C13.6296064,69.8010877 15.2573373,68.1771492 16.6761189,66.9427398 C17.4602919,66.4982881 18.2061552,65.8954294 18.8926618,65.1590883 C18.979626,65.094696 19.0273437,65.0603027 19.0273437,65.0603027 L19.0307124,65.0083282 C20.9669129,62.8557289 22.4080611,59.6295303 22.8648635,55.909174 C23.0765414,54.1851951 23.0574578,52.5130404 22.8409048,50.9604325 C22.8368238,50.8759102 22.8279225,50.7859583 22.8139734,50.6903658 C22.3889646,47.7778015 23.2400776,44.6032877 23.7701359,43.0054159 C24.3911156,41.5087943 24.8387374,39.8332604 25.0585116,38.0433433 C25.2685231,36.3329372 25.2513922,34.6735424 25.039631,33.1312947 C24.8832167,30.8071778 25.3999952,28.3920691 25.8402484,26.8272215 C26.398892,25.4072689 26.8030945,23.8348563 27.0084211,22.1626048 C27.5226821,17.974285 26.6749362,14.0918429 24.9425649,11.4863652 L24.9504395,11.4772949 C24.9504395,11.4772949 24.9206757,11.4412697 24.8658233,11.3726275 C24.6758027,11.095104 24.4755308,10.8326624 24.2656104,10.5865287 C22.9339657,8.7756018 20.125,4.53557215 20.125,0.991210938 C15.8344727,8.14868164 17.472168,7.97851562 13.8354492,10.9921875 C13.839466,11.0375118 13.8441113,11.0824779 13.8493719,11.1270883 Z" id="Combined-Shape" fill="#073B4C"></path>
                    </g>
                    <g id="soybeans-copy" transform="translate(323.000000, 12.000000)">
                        <path d="M0.456501719,41.213931 C0.160595652,39.8924352 0,38.4749011 0,37 C0,35.1649139 0.248611324,33.418635 0.697131872,31.835649 C1.09030551,29.784727 0.877965976,27.4885637 0.629519451,25.9188148 C0.223695606,24.4014993 0,22.7407032 0,21 C0,13.8202983 3.80557963,8 8.5,8 C13.1944204,8 17,13.8202983 17,21 C17,22.6848098 16.7904393,24.2947618 16.4090084,25.7722117 C16.1627437,27.3790485 15.944145,29.8391348 16.3826319,32.1268661 C16.7807674,33.6318109 17,35.2767491 17,37 C17,38.8033591 16.7599109,40.5209552 16.3259522,42.0820996 C15.9945765,43.732659 15.5366834,46.987235 16.3134766,49.8262939 C16.3389715,49.9194739 16.3587688,50.0076705 16.37312,50.0910655 C16.7772742,51.6057093 17,53.2630744 17,55 C17,62.1797017 13.1944204,68 8.5,68 C3.80557963,68 0,62.1797017 0,55 C0,53.2972532 0.2140465,51.6709667 0.603232431,50.1806454 C0.611222139,50.1376039 0.620905235,50.092944 0.632324219,50.0466309 C1.28743359,47.3896393 0.776109875,43.2398162 0.456501719,41.213931 Z" id="Combined-Shape" fill="#073B4C"></path>
                        <ellipse id="Oval-3-Copy-4" fill="#4AD4A1" cx="7.5" cy="37" rx="4.5" ry="7"></ellipse>
                        <ellipse id="Oval-3-Copy-5" fill="#4AD4A1" cx="9" cy="56" rx="6" ry="9"></ellipse>
                        <path d="M13.8493719,11.1270883 C11.9736879,13.2784061 10.5824578,16.4476872 10.1351365,20.090826 C9.92299819,21.8185542 9.94262627,23.4942327 10.1605109,25.0496958 C10.2158013,26.6380221 10.1467262,28.9429478 9.50653868,30.9306667 C8.86844387,32.4471925 8.40886779,34.1501568 8.18522705,35.9715644 C8.00548183,37.4354718 7.99212647,38.8620116 8.12477708,40.2097189 C8.19510962,42.259454 8.19688579,46.4406596 7.22285369,48.9980086 C7.20587567,49.0425849 7.19082207,49.0857319 7.17764648,49.1274788 L7.17764648,49.1274788 C6.609737,50.5592617 6.1990915,52.1473404 5.99157887,53.8373952 C5.48174063,57.9896944 6.31058295,61.8413546 8.01293531,64.4461288 C8.03662888,64.6708371 8.14718848,64.8577403 8.36865234,64.9916992 C8.38582677,65.0020877 8.40291006,65.0125619 8.41990428,65.0231219 C8.94660561,65.7147834 9.54243604,66.2975752 10.1963707,66.7490709 C11.020593,67.854249 11.8282586,69.3061857 13.1269531,71.1225586 C13.6296064,69.8010877 15.2573373,68.1771492 16.6761189,66.9427398 C17.4602919,66.4982881 18.2061552,65.8954294 18.8926618,65.1590883 C18.979626,65.094696 19.0273437,65.0603027 19.0273437,65.0603027 L19.0307124,65.0083282 C20.9669129,62.8557289 22.4080611,59.6295303 22.8648635,55.909174 C23.0765414,54.1851951 23.0574578,52.5130404 22.8409048,50.9604325 C22.8368238,50.8759102 22.8279225,50.7859583 22.8139734,50.6903658 C22.3889646,47.7778015 23.2400776,44.6032877 23.7701359,43.0054159 C24.3911156,41.5087943 24.8387374,39.8332604 25.0585116,38.0433433 C25.2685231,36.3329372 25.2513922,34.6735424 25.039631,33.1312947 C24.8832167,30.8071778 25.3999952,28.3920691 25.8402484,26.8272215 C26.398892,25.4072689 26.8030945,23.8348563 27.0084211,22.1626048 C27.5226821,17.974285 26.6749362,14.0918429 24.9425649,11.4863652 L24.9504395,11.4772949 C24.9504395,11.4772949 24.9206757,11.4412697 24.8658233,11.3726275 C24.6758027,11.095104 24.4755308,10.8326624 24.2656104,10.5865287 C22.9339657,8.7756018 20.125,4.53557215 20.125,0.991210938 C15.8344727,8.14868164 17.472168,7.97851562 13.8354492,10.9921875 C13.839466,11.0375118 13.8441113,11.0824779 13.8493719,11.1270883 Z" id="Combined-Shape" fill="#073B4C"></path>
                    </g>
                    <g id="soybeans-copy-5" transform="translate(705.000000, 12.000000)">
                        <path d="M0.456501719,41.213931 C0.160595652,39.8924352 0,38.4749011 0,37 C0,35.1649139 0.248611324,33.418635 0.697131872,31.835649 C1.09030551,29.784727 0.877965976,27.4885637 0.629519451,25.9188148 C0.223695606,24.4014993 0,22.7407032 0,21 C0,13.8202983 3.80557963,8 8.5,8 C13.1944204,8 17,13.8202983 17,21 C17,22.6848098 16.7904393,24.2947618 16.4090084,25.7722117 C16.1627437,27.3790485 15.944145,29.8391348 16.3826319,32.1268661 C16.7807674,33.6318109 17,35.2767491 17,37 C17,38.8033591 16.7599109,40.5209552 16.3259522,42.0820996 C15.9945765,43.732659 15.5366834,46.987235 16.3134766,49.8262939 C16.3389715,49.9194739 16.3587688,50.0076705 16.37312,50.0910655 C16.7772742,51.6057093 17,53.2630744 17,55 C17,62.1797017 13.1944204,68 8.5,68 C3.80557963,68 0,62.1797017 0,55 C0,53.2972532 0.2140465,51.6709667 0.603232431,50.1806454 C0.611222139,50.1376039 0.620905235,50.092944 0.632324219,50.0466309 C1.28743359,47.3896393 0.776109875,43.2398162 0.456501719,41.213931 Z" id="Combined-Shape" fill="#073B4C"></path>
                        <ellipse id="Oval-3-Copy-4" fill="#4AD4A1" cx="7.5" cy="37" rx="4.5" ry="7"></ellipse>
                        <ellipse id="Oval-3-Copy-5" fill="#4AD4A1" cx="9" cy="56" rx="6" ry="9"></ellipse>
                        <path d="M13.8493719,11.1270883 C11.9736879,13.2784061 10.5824578,16.4476872 10.1351365,20.090826 C9.92299819,21.8185542 9.94262627,23.4942327 10.1605109,25.0496958 C10.2158013,26.6380221 10.1467262,28.9429478 9.50653868,30.9306667 C8.86844387,32.4471925 8.40886779,34.1501568 8.18522705,35.9715644 C8.00548183,37.4354718 7.99212647,38.8620116 8.12477708,40.2097189 C8.19510962,42.259454 8.19688579,46.4406596 7.22285369,48.9980086 C7.20587567,49.0425849 7.19082207,49.0857319 7.17764648,49.1274788 L7.17764648,49.1274788 C6.609737,50.5592617 6.1990915,52.1473404 5.99157887,53.8373952 C5.48174063,57.9896944 6.31058295,61.8413546 8.01293531,64.4461288 C8.03662888,64.6708371 8.14718848,64.8577403 8.36865234,64.9916992 C8.38582677,65.0020877 8.40291006,65.0125619 8.41990428,65.0231219 C8.94660561,65.7147834 9.54243604,66.2975752 10.1963707,66.7490709 C11.020593,67.854249 11.8282586,69.3061857 13.1269531,71.1225586 C13.6296064,69.8010877 15.2573373,68.1771492 16.6761189,66.9427398 C17.4602919,66.4982881 18.2061552,65.8954294 18.8926618,65.1590883 C18.979626,65.094696 19.0273437,65.0603027 19.0273437,65.0603027 L19.0307124,65.0083282 C20.9669129,62.8557289 22.4080611,59.6295303 22.8648635,55.909174 C23.0765414,54.1851951 23.0574578,52.5130404 22.8409048,50.9604325 C22.8368238,50.8759102 22.8279225,50.7859583 22.8139734,50.6903658 C22.3889646,47.7778015 23.2400776,44.6032877 23.7701359,43.0054159 C24.3911156,41.5087943 24.8387374,39.8332604 25.0585116,38.0433433 C25.2685231,36.3329372 25.2513922,34.6735424 25.039631,33.1312947 C24.8832167,30.8071778 25.3999952,28.3920691 25.8402484,26.8272215 C26.398892,25.4072689 26.8030945,23.8348563 27.0084211,22.1626048 C27.5226821,17.974285 26.6749362,14.0918429 24.9425649,11.4863652 L24.9504395,11.4772949 C24.9504395,11.4772949 24.9206757,11.4412697 24.8658233,11.3726275 C24.6758027,11.095104 24.4755308,10.8326624 24.2656104,10.5865287 C22.9339657,8.7756018 20.125,4.53557215 20.125,0.991210938 C15.8344727,8.14868164 17.472168,7.97851562 13.8354492,10.9921875 C13.839466,11.0375118 13.8441113,11.0824779 13.8493719,11.1270883 Z" id="Combined-Shape" fill="#073B4C"></path>
                    </g>
                    <g id="potato-copy" transform="translate(134.000000, 129.000000)">
                        <path d="M17.3605106,30 C28.0728107,30 32,22.7253877 32,15 C32,7.27461227 28.0728107,0 17.3605106,0 C12.0623886,0 9.94520355,5.98618012 6.4445817,8.46932828 C2.86727821,11.0068702 0,14.2373056 0,18.1418476 C0,25.8672353 6.64821048,30 17.3605106,30 Z" id="Oval-4" fill="#073B4C"></path>
                        <ellipse id="Oval-5" fill="#4AD4A1" cx="18.5" cy="5" rx="1.5" ry="1"></ellipse>
                        <ellipse id="Oval-5-Copy" fill="#4AD4A1" cx="15" cy="11" rx="1" ry="1"></ellipse>
                        <ellipse id="Oval-5-Copy-2" fill="#4AD4A1" cx="26" cy="9" rx="1" ry="1"></ellipse>
                    </g>
                    <g id="potato-copy-6" transform="translate(516.000000, 129.000000)">
                        <path d="M17.3605106,30 C28.0728107,30 32,22.7253877 32,15 C32,7.27461227 28.0728107,0 17.3605106,0 C12.0623886,0 9.94520355,5.98618012 6.4445817,8.46932828 C2.86727821,11.0068702 0,14.2373056 0,18.1418476 C0,25.8672353 6.64821048,30 17.3605106,30 Z" id="Oval-4" fill="#073B4C"></path>
                        <ellipse id="Oval-5" fill="#4AD4A1" cx="18.5" cy="5" rx="1.5" ry="1"></ellipse>
                        <circle id="Oval-5-Copy" fill="#4AD4A1" cx="15" cy="11" r="1"></circle>
                        <ellipse id="Oval-5-Copy-2" fill="#4AD4A1" cx="26" cy="9" rx="1" ry="1"></ellipse>
                    </g>
                    <g id="potato-copy-3" transform="translate(279.000000, 27.000000)" fill="#073B4C">
                        <path d="M17.3605106,30 C28.0728107,30 32,22.7253877 32,15 C32,7.27461227 28.0728107,0 17.3605106,0 C12.0623886,0 9.94520355,5.98618012 6.4445817,8.46932828 C2.86727821,11.0068702 0,14.2373056 0,18.1418476 C0,25.8672353 6.64821048,30 17.3605106,30 Z" id="Oval-4"></path>
                    </g>
                    <g id="potato-copy-7" transform="translate(661.000000, 27.000000)" fill="#073B4C">
                        <path d="M17.3605106,30 C28.0728107,30 32,22.7253877 32,15 C32,7.27461227 28.0728107,0 17.3605106,0 C12.0623886,0 9.94520355,5.98618012 6.4445817,8.46932828 C2.86727821,11.0068702 0,14.2373056 0,18.1418476 C0,25.8672353 6.64821048,30 17.3605106,30 Z" id="Oval-4"></path>
                    </g>
                    <g id="potato-copy-5" transform="translate(14.000000, 144.000000)">
                        <path d="M17.3605106,30 C28.0728107,30 32,22.7253877 32,15 C32,7.27461227 28.0728107,0 17.3605106,0 C12.0623886,0 9.94520355,5.98618012 6.4445817,8.46932828 C2.86727821,11.0068702 0,14.2373056 0,18.1418476 C0,25.8672353 6.64821048,30 17.3605106,30 Z" id="Oval-4" fill="#073B4C"></path>
                        <ellipse id="Oval-5" fill="#4AD4A1" cx="18.5" cy="5" rx="1.5" ry="1"></ellipse>
                        <ellipse id="Oval-5-Copy" fill="#4AD4A1" cx="15" cy="11" rx="1" ry="1"></ellipse>
                        <ellipse id="Oval-5-Copy-2" fill="#4AD4A1" cx="26" cy="9" rx="1" ry="1"></ellipse>
                    </g>
                    <g id="potato-copy-8" transform="translate(396.000000, 144.000000)">
                        <path d="M17.3605106,30 C28.0728107,30 32,22.7253877 32,15 C32,7.27461227 28.0728107,0 17.3605106,0 C12.0623886,0 9.94520355,5.98618012 6.4445817,8.46932828 C2.86727821,11.0068702 0,14.2373056 0,18.1418476 C0,25.8672353 6.64821048,30 17.3605106,30 Z" id="Oval-4" fill="#073B4C"></path>
                        <ellipse id="Oval-5" fill="#4AD4A1" cx="18.5" cy="5" rx="1.5" ry="1"></ellipse>
                        <circle id="Oval-5-Copy" fill="#4AD4A1" cx="15" cy="11" r="1"></circle>
                        <ellipse id="Oval-5-Copy-2" fill="#4AD4A1" cx="26" cy="9" rx="1" ry="1"></ellipse>
                    </g>
                    <g id="potato-copy-2" transform="translate(79.000000, 53.000000)">
                        <path d="M17.3605106,30 C28.0728107,30 32,22.7253877 32,15 C32,7.27461227 28.0728107,0 17.3605106,0 C12.0623886,0 9.94520355,5.98618012 6.4445817,8.46932828 C2.86727821,11.0068702 0,14.2373056 0,18.1418476 C0,25.8672353 6.64821048,30 17.3605106,30 Z" id="Oval-4" fill="#073B4C"></path>
                        <ellipse id="Oval-5" fill="#4AD4A1" cx="18.5" cy="5" rx="1.5" ry="1"></ellipse>
                        <ellipse id="Oval-5-Copy" fill="#4AD4A1" cx="15" cy="11" rx="1" ry="1"></ellipse>
                        <ellipse id="Oval-5-Copy-2" fill="#4AD4A1" cx="26" cy="9" rx="1" ry="1"></ellipse>
                    </g>
                    <g id="potato-copy-9" transform="translate(461.000000, 53.000000)">
                        <path d="M17.3605106,30 C28.0728107,30 32,22.7253877 32,15 C32,7.27461227 28.0728107,0 17.3605106,0 C12.0623886,0 9.94520355,5.98618012 6.4445817,8.46932828 C2.86727821,11.0068702 0,14.2373056 0,18.1418476 C0,25.8672353 6.64821048,30 17.3605106,30 Z" id="Oval-4" fill="#073B4C"></path>
                        <ellipse id="Oval-5" fill="#4AD4A1" cx="18.5" cy="5" rx="1.5" ry="1"></ellipse>
                        <circle id="Oval-5-Copy" fill="#4AD4A1" cx="15" cy="11" r="1"></circle>
                        <ellipse id="Oval-5-Copy-2" fill="#4AD4A1" cx="26" cy="9" rx="1" ry="1"></ellipse>
                    </g>
                    <g id="potato-copy-4" transform="translate(273.000000, 146.000000)">
                        <path d="M17.3605106,30 C28.0728107,30 32,22.7253877 32,15 C32,7.27461227 28.0728107,0 17.3605106,0 C12.0623886,0 9.94520355,5.98618012 6.4445817,8.46932828 C2.86727821,11.0068702 0,14.2373056 0,18.1418476 C0,25.8672353 6.64821048,30 17.3605106,30 Z" id="Oval-4" fill="#073B4C"></path>
                        <ellipse id="Oval-5" fill="#4AD4A1" cx="18.5" cy="5" rx="1.5" ry="1"></ellipse>
                        <ellipse id="Oval-5-Copy" fill="#4AD4A1" cx="15" cy="11" rx="1" ry="1"></ellipse>
                        <ellipse id="Oval-5-Copy-2" fill="#4AD4A1" cx="26" cy="9" rx="1" ry="1"></ellipse>
                    </g>
                    <g id="potato-copy-10" transform="translate(655.000000, 146.000000)">
                        <path d="M17.3605106,30 C28.0728107,30 32,22.7253877 32,15 C32,7.27461227 28.0728107,0 17.3605106,0 C12.0623886,0 9.94520355,5.98618012 6.4445817,8.46932828 C2.86727821,11.0068702 0,14.2373056 0,18.1418476 C0,25.8672353 6.64821048,30 17.3605106,30 Z" id="Oval-4" fill="#073B4C"></path>
                        <ellipse id="Oval-5" fill="#4AD4A1" cx="18.5" cy="5" rx="1.5" ry="1"></ellipse>
                        <circle id="Oval-5-Copy" fill="#4AD4A1" cx="15" cy="11" r="1"></circle>
                        <ellipse id="Oval-5-Copy-2" fill="#4AD4A1" cx="26" cy="9" rx="1" ry="1"></ellipse>
                    </g>
                    <g id="yam" transform="translate(81.000000, 139.000000)">
                        <path d="M12.5,44 C12.5,44 24,34.1502645 24,22 C24,9.8497355 12.5,0 12.5,0 C12.5,0 1,9.8497355 1,22 C1,34.1502645 12.5,44 12.5,44 Z" id="Oval-6" fill="#073B4C"></path>
                        <path d="M0,17.0847328 C0,17.0847328 3.09821602,15 6.31482428,15" id="Path-8-Copy-2" stroke="#4AD4A1" stroke-width="2" stroke-linecap="round"></path>
                        <path d="M9,9.08473277 C9,9.08473277 12.098216,7 15.3148243,7" id="Path-8-Copy-3" stroke="#4AD4A1" stroke-width="2" stroke-linecap="round" transform="translate(12.157412, 8.042366) rotate(18.000000) translate(-12.157412, -8.042366) "></path>
                        <path d="M18,26.0847328 C18,26.0847328 21.098216,24 24.3148243,24" id="Path-8-Copy" stroke="#4AD4A1" stroke-width="2" stroke-linecap="round" transform="translate(21.157412, 25.042366) rotate(40.000000) translate(-21.157412, -25.042366) "></path>
                    </g>
                    <g id="yam-copy-4" transform="translate(463.000000, 139.000000)">
                        <path d="M12.5,44 C12.5,44 24,34.1502645 24,22 C24,9.8497355 12.5,0 12.5,0 C12.5,0 1,9.8497355 1,22 C1,34.1502645 12.5,44 12.5,44 Z" id="Oval-6" fill="#073B4C"></path>
                        <path d="M0,17.0847328 C0,17.0847328 3.09821602,15 6.31482428,15" id="Path-8-Copy-2" stroke="#4AD4A1" stroke-width="2" stroke-linecap="round"></path>
                        <path d="M9,9.08473277 C9,9.08473277 12.098216,7 15.3148243,7" id="Path-8-Copy-3" stroke="#4AD4A1" stroke-width="2" stroke-linecap="round" transform="translate(12.157412, 8.042366) rotate(18.000000) translate(-12.157412, -8.042366) "></path>
                        <path d="M18,26.0847328 C18,26.0847328 21.098216,24 24.3148243,24" id="Path-8-Copy" stroke="#4AD4A1" stroke-width="2" stroke-linecap="round" transform="translate(21.157412, 25.042366) rotate(40.000000) translate(-21.157412, -25.042366) "></path>
                    </g>
                    <g id="yam-copy-3" transform="translate(2.000000, 22.000000)">
                        <path d="M12.5,44 C12.5,44 24,34.1502645 24,22 C24,9.8497355 12.5,0 12.5,0 C12.5,0 1,9.8497355 1,22 C1,34.1502645 12.5,44 12.5,44 Z" id="Oval-6" fill="#073B4C"></path>
                        <path d="M3,34.0847328 C3,34.0847328 6.09821602,32 9.31482428,32" id="Path-8" stroke="#4AD4A1" stroke-width="2" stroke-linecap="round"></path>
                        <path d="M18,26.0847328 C18,26.0847328 21.098216,24 24.3148243,24" id="Path-8-Copy" stroke="#4AD4A1" stroke-width="2" stroke-linecap="round" transform="translate(21.157412, 25.042366) rotate(40.000000) translate(-21.157412, -25.042366) "></path>
                    </g>
                    <g id="yam-copy-5" transform="translate(384.000000, 22.000000)">
                        <path d="M12.5,44 C12.5,44 24,34.1502645 24,22 C24,9.8497355 12.5,0 12.5,0 C12.5,0 1,9.8497355 1,22 C1,34.1502645 12.5,44 12.5,44 Z" id="Oval-6" fill="#073B4C"></path>
                        <path d="M3,34.0847328 C3,34.0847328 6.09821602,32 9.31482428,32" id="Path-8" stroke="#4AD4A1" stroke-width="2" stroke-linecap="round"></path>
                        <path d="M18,26.0847328 C18,26.0847328 21.098216,24 24.3148243,24" id="Path-8-Copy" stroke="#4AD4A1" stroke-width="2" stroke-linecap="round" transform="translate(21.157412, 25.042366) rotate(40.000000) translate(-21.157412, -25.042366) "></path>
                    </g>
                    <g id="yam-copy-2" transform="translate(225.000000, 54.000000)">
                        <path d="M12.5,44 C12.5,44 24,34.1502645 24,22 C24,9.8497355 12.5,0 12.5,0 C12.5,0 1,9.8497355 1,22 C1,34.1502645 12.5,44 12.5,44 Z" id="Oval-6" fill="#073B4C"></path>
                        <path d="M3,34.0847328 C3,34.0847328 6.09821602,32 9.31482428,32" id="Path-8" stroke="#4AD4A1" stroke-width="2" stroke-linecap="round"></path>
                        <path d="M0,17.0847328 C0,17.0847328 3.09821602,15 6.31482428,15" id="Path-8-Copy-2" stroke="#4AD4A1" stroke-width="2" stroke-linecap="round"></path>
                        <path d="M9,9.08473277 C9,9.08473277 12.098216,7 15.3148243,7" id="Path-8-Copy-3" stroke="#4AD4A1" stroke-width="2" stroke-linecap="round" transform="translate(12.157412, 8.042366) rotate(18.000000) translate(-12.157412, -8.042366) "></path>
                        <path d="M18,26.0847328 C18,26.0847328 21.098216,24 24.3148243,24" id="Path-8-Copy" stroke="#4AD4A1" stroke-width="2" stroke-linecap="round" transform="translate(21.157412, 25.042366) rotate(40.000000) translate(-21.157412, -25.042366) "></path>
                    </g>
                    <g id="yam-copy-6" transform="translate(607.000000, 54.000000)">
                        <path d="M12.5,44 C12.5,44 24,34.1502645 24,22 C24,9.8497355 12.5,0 12.5,0 C12.5,0 1,9.8497355 1,22 C1,34.1502645 12.5,44 12.5,44 Z" id="Oval-6" fill="#073B4C"></path>
                        <path d="M3,34.0847328 C3,34.0847328 6.09821602,32 9.31482428,32" id="Path-8" stroke="#4AD4A1" stroke-width="2" stroke-linecap="round"></path>
                        <path d="M0,17.0847328 C0,17.0847328 3.09821602,15 6.31482428,15" id="Path-8-Copy-2" stroke="#4AD4A1" stroke-width="2" stroke-linecap="round"></path>
                        <path d="M9,9.08473277 C9,9.08473277 12.098216,7 15.3148243,7" id="Path-8-Copy-3" stroke="#4AD4A1" stroke-width="2" stroke-linecap="round" transform="translate(12.157412, 8.042366) rotate(18.000000) translate(-12.157412, -8.042366) "></path>
                        <path d="M18,26.0847328 C18,26.0847328 21.098216,24 24.3148243,24" id="Path-8-Copy" stroke="#4AD4A1" stroke-width="2" stroke-linecap="round" transform="translate(21.157412, 25.042366) rotate(40.000000) translate(-21.157412, -25.042366) "></path>
                    </g>
                    <g id="yam-copy" transform="translate(161.000000, 32.000000)">
                        <path d="M12.5,44 C12.5,44 24,34.1502645 24,22 C24,9.8497355 12.5,0 12.5,0 C12.5,0 1,9.8497355 1,22 C1,34.1502645 12.5,44 12.5,44 Z" id="Oval-6" fill="#073B4C"></path>
                        <path d="M3,34.0847328 C3,34.0847328 6.09821602,32 9.31482428,32" id="Path-8" stroke="#4AD4A1" stroke-width="2" stroke-linecap="round"></path>
                        <path d="M0,17.0847328 C0,17.0847328 3.09821602,15 6.31482428,15" id="Path-8-Copy-2" stroke="#4AD4A1" stroke-width="2" stroke-linecap="round"></path>
                        <path d="M18,26.0847328 C18,26.0847328 21.098216,24 24.3148243,24" id="Path-8-Copy" stroke="#4AD4A1" stroke-width="2" stroke-linecap="round" transform="translate(21.157412, 25.042366) rotate(40.000000) translate(-21.157412, -25.042366) "></path>
                    </g>
                    <g id="yam-copy-7" transform="translate(543.000000, 32.000000)">
                        <path d="M12.5,44 C12.5,44 24,34.1502645 24,22 C24,9.8497355 12.5,0 12.5,0 C12.5,0 1,9.8497355 1,22 C1,34.1502645 12.5,44 12.5,44 Z" id="Oval-6" fill="#073B4C"></path>
                        <path d="M3,34.0847328 C3,34.0847328 6.09821602,32 9.31482428,32" id="Path-8" stroke="#4AD4A1" stroke-width="2" stroke-linecap="round"></path>
                        <path d="M0,17.0847328 C0,17.0847328 3.09821602,15 6.31482428,15" id="Path-8-Copy-2" stroke="#4AD4A1" stroke-width="2" stroke-linecap="round"></path>
                        <path d="M18,26.0847328 C18,26.0847328 21.098216,24 24.3148243,24" id="Path-8-Copy" stroke="#4AD4A1" stroke-width="2" stroke-linecap="round" transform="translate(21.157412, 25.042366) rotate(40.000000) translate(-21.157412, -25.042366) "></path>
                    </g>
                    <g id="banana" transform="translate(225.000000, 108.000000)">
                        <path d="M17.73288,0.0573177172 C17.1920725,-0.191189278 7.45455973,-0.340631502 10.2548527,15.7472591 C13.0551457,31.8351497 22.6244816,36.6642513 29.3027043,34.5333919 C35.9809269,32.4025326 25.7157902,26.0509701 23.7734074,24.0368099 C21.8310246,22.0226497 19.583466,14.0114193 19.583466,8.47333334 C19.583466,2.9352474 20.6412454,1.3937435 17.73288,0.0573177172 Z" id="Path-9" stroke="#073B4C" stroke-width="2" stroke-linecap="square" fill="#4AD4A1"></path>
                        <path d="M34.6875,28.6630859 C33.17707,24.6031378 26.9355538,16.699707 24.0561593,19.5004883 C21.1767647,22.3012695 25.5009835,26.3310547 26.7695382,27.199707 C28.0380929,28.0683594 30.368171,29.7539063 30.368171,31.4033203 C31.7685616,31.8728027 32.9023507,31.8513184 32.9023507,31.8513184 L32.9174874,33.7785645 L30.6462472,33.859375 C30.6462472,33.859375 20.767585,38.692627 14.8227608,28.6630859 C15.5166016,36.8041992 17.9809605,40.8710937 17.9809605,40.8710937 C17.9809605,40.8710937 3.92211914,38.0803223 8.14550781,21.7075195 C5.35914226,23.9441338 5.29346395,27.9992676 5.63648153,32.7653809 C5.9794991,37.5314941 2.96484375,36.7841797 0.75,30.2429199 C-1.46484375,23.7016602 2.84571004,17.4353027 10.4628975,18.284668 C14.2970767,18.7122035 14.8227608,17.7387695 16.819587,18.284668 C17.6838665,18.5209473 19.9235909,19.920166 20.4638741,21.7075195 C19.9235909,19.5004883 20.9687195,18.4297099 22.0246651,17 C26.0727539,11.519043 34.6875,14.1630859 36.7910156,24.9663086 C38.8945312,35.7695313 37.3803711,35.9013672 34.6875,28.6630859 Z" id="Path-11" fill="#073B4C"></path>
                        <path d="M17.4211426,18.2424316 C17.4211426,18.2424316 8.8046875,18.7678223 7.00366211,24.0253906" id="Path-13" stroke="#4AD4A1" stroke-linecap="round"></path>
                        <path d="M18.0878906,40.8476562 C18.0878906,40.8476562 9.40273712,18.2451172 18.4512465,19.001709" id="Path-12" stroke="#4AD4A1" stroke-linecap="round"></path>
                        <path d="M27.4992676,20.112793 C27.4992676,20.112793 21.8840332,15.7932989 20.1352539,19.7644903" id="Path-10" stroke="#4AD4A1" stroke-linecap="round"></path>
                    </g>
                    <g id="banana-copy-2" transform="translate(607.000000, 108.000000)">
                        <path d="M17.73288,0.0573177172 C17.1920725,-0.191189278 7.45455973,-0.340631502 10.2548527,15.7472591 C13.0551457,31.8351497 22.6244816,36.6642513 29.3027043,34.5333919 C35.9809269,32.4025326 25.7157902,26.0509701 23.7734074,24.0368099 C21.8310246,22.0226497 19.583466,14.0114193 19.583466,8.47333334 C19.583466,2.9352474 20.6412454,1.3937435 17.73288,0.0573177172 Z" id="Path-9" stroke="#073B4C" stroke-width="2" stroke-linecap="square" fill="#4AD4A1"></path>
                        <path d="M34.6875,28.6630859 C33.17707,24.6031378 26.9355538,16.699707 24.0561593,19.5004883 C21.1767647,22.3012695 25.5009835,26.3310547 26.7695382,27.199707 C28.0380929,28.0683594 30.368171,29.7539063 30.368171,31.4033203 C31.7685616,31.8728027 32.9023507,31.8513184 32.9023507,31.8513184 L32.9174874,33.7785645 L30.6462472,33.859375 C30.6462472,33.859375 20.767585,38.692627 14.8227608,28.6630859 C15.5166016,36.8041992 17.9809605,40.8710937 17.9809605,40.8710937 C17.9809605,40.8710937 3.92211914,38.0803223 8.14550781,21.7075195 C5.35914226,23.9441338 5.29346395,27.9992676 5.63648153,32.7653809 C5.9794991,37.5314941 2.96484375,36.7841797 0.75,30.2429199 C-1.46484375,23.7016602 2.84571004,17.4353027 10.4628975,18.284668 C14.2970767,18.7122035 14.8227608,17.7387695 16.819587,18.284668 C17.6838665,18.5209473 19.9235909,19.920166 20.4638741,21.7075195 C19.9235909,19.5004883 20.9687195,18.4297099 22.0246651,17 C26.0727539,11.519043 34.6875,14.1630859 36.7910156,24.9663086 C38.8945312,35.7695313 37.3803711,35.9013672 34.6875,28.6630859 Z" id="Path-11" fill="#073B4C"></path>
                        <path d="M17.4211426,18.2424316 C17.4211426,18.2424316 8.8046875,18.7678223 7.00366211,24.0253906" id="Path-13" stroke="#4AD4A1" stroke-linecap="round"></path>
                        <path d="M18.0878906,40.8476562 C18.0878906,40.8476562 9.40273712,18.2451172 18.4512465,19.001709" id="Path-12" stroke="#4AD4A1" stroke-linecap="round"></path>
                        <path d="M27.4992676,20.112793 C27.4992676,20.112793 21.8840332,15.7932989 20.1352539,19.7644903" id="Path-10" stroke="#4AD4A1" stroke-linecap="round"></path>
                    </g>
                    <g id="banana-copy" transform="translate(35.000000, 32.000000)">
                        <path d="M17.73288,0.0573177172 C17.1920725,-0.191189278 7.45455973,-0.340631502 10.2548527,15.7472591 C13.0551457,31.8351497 22.6244816,36.6642513 29.3027043,34.5333919 C35.9809269,32.4025326 25.7157902,26.0509701 23.7734074,24.0368099 C21.8310246,22.0226497 19.583466,14.0114193 19.583466,8.47333334 C19.583466,2.9352474 20.6412454,1.3937435 17.73288,0.0573177172 Z" id="Path-9" stroke="#073B4C" stroke-width="2" stroke-linecap="square" fill="#4AD4A1"></path>
                        <path d="M34.6875,28.6630859 C33.17707,24.6031378 26.9355538,16.699707 24.0561593,19.5004883 C21.1767647,22.3012695 25.5009835,26.3310547 26.7695382,27.199707 C28.0380929,28.0683594 30.368171,29.7539063 30.368171,31.4033203 C31.7685616,31.8728027 32.9023507,31.8513184 32.9023507,31.8513184 L32.9174874,33.7785645 L30.6462472,33.859375 C30.6462472,33.859375 20.767585,38.692627 14.8227608,28.6630859 C15.5166016,36.8041992 17.9809605,40.8710937 17.9809605,40.8710937 C17.9809605,40.8710937 3.92211914,38.0803223 8.14550781,21.7075195 C5.35914226,23.9441338 5.29346395,27.9992676 5.63648153,32.7653809 C5.9794991,37.5314941 2.96484375,36.7841797 0.75,30.2429199 C-1.46484375,23.7016602 2.84571004,17.4353027 10.4628975,18.284668 C14.2970767,18.7122035 14.8227608,17.7387695 16.819587,18.284668 C17.6838665,18.5209473 19.9235909,19.920166 20.4638741,21.7075195 C19.9235909,19.5004883 20.9687195,18.4297099 22.0246651,17 C26.0727539,11.519043 34.6875,14.1630859 36.7910156,24.9663086 C38.8945312,35.7695313 37.3803711,35.9013672 34.6875,28.6630859 Z" id="Path-11" fill="#073B4C"></path>
                        <path d="M17.4211426,18.2424316 C17.4211426,18.2424316 8.8046875,18.7678223 7.00366211,24.0253906" id="Path-13" stroke="#4AD4A1" stroke-linecap="round"></path>
                        <path d="M18.0878906,40.8476562 C18.0878906,40.8476562 9.40273712,18.2451172 18.4512465,19.001709" id="Path-12" stroke="#4AD4A1" stroke-linecap="round"></path>
                        <path d="M27.4992676,20.112793 C27.4992676,20.112793 21.8840332,15.7932989 20.1352539,19.7644903" id="Path-10" stroke="#4AD4A1" stroke-linecap="round"></path>
                    </g>
                    <g id="banana-copy-3" transform="translate(417.000000, 32.000000)">
                        <path d="M17.73288,0.0573177172 C17.1920725,-0.191189278 7.45455973,-0.340631502 10.2548527,15.7472591 C13.0551457,31.8351497 22.6244816,36.6642513 29.3027043,34.5333919 C35.9809269,32.4025326 25.7157902,26.0509701 23.7734074,24.0368099 C21.8310246,22.0226497 19.583466,14.0114193 19.583466,8.47333334 C19.583466,2.9352474 20.6412454,1.3937435 17.73288,0.0573177172 Z" id="Path-9" stroke="#073B4C" stroke-width="2" stroke-linecap="square" fill="#4AD4A1"></path>
                        <path d="M34.6875,28.6630859 C33.17707,24.6031378 26.9355538,16.699707 24.0561593,19.5004883 C21.1767647,22.3012695 25.5009835,26.3310547 26.7695382,27.199707 C28.0380929,28.0683594 30.368171,29.7539063 30.368171,31.4033203 C31.7685616,31.8728027 32.9023507,31.8513184 32.9023507,31.8513184 L32.9174874,33.7785645 L30.6462472,33.859375 C30.6462472,33.859375 20.767585,38.692627 14.8227608,28.6630859 C15.5166016,36.8041992 17.9809605,40.8710937 17.9809605,40.8710937 C17.9809605,40.8710937 3.92211914,38.0803223 8.14550781,21.7075195 C5.35914226,23.9441338 5.29346395,27.9992676 5.63648153,32.7653809 C5.9794991,37.5314941 2.96484375,36.7841797 0.75,30.2429199 C-1.46484375,23.7016602 2.84571004,17.4353027 10.4628975,18.284668 C14.2970767,18.7122035 14.8227608,17.7387695 16.819587,18.284668 C17.6838665,18.5209473 19.9235909,19.920166 20.4638741,21.7075195 C19.9235909,19.5004883 20.9687195,18.4297099 22.0246651,17 C26.0727539,11.519043 34.6875,14.1630859 36.7910156,24.9663086 C38.8945312,35.7695313 37.3803711,35.9013672 34.6875,28.6630859 Z" id="Path-11" fill="#073B4C"></path>
                        <path d="M17.4211426,18.2424316 C17.4211426,18.2424316 8.8046875,18.7678223 7.00366211,24.0253906" id="Path-13" stroke="#4AD4A1" stroke-linecap="round"></path>
                        <path d="M18.0878906,40.8476562 C18.0878906,40.8476562 9.40273712,18.2451172 18.4512465,19.001709" id="Path-12" stroke="#4AD4A1" stroke-linecap="round"></path>
                        <path d="M27.4992676,20.112793 C27.4992676,20.112793 21.8840332,15.7932989 20.1352539,19.7644903" id="Path-10" stroke="#4AD4A1" stroke-linecap="round"></path>
                    </g>
                    <g id="maize-copy-5" transform="translate(794.000000, 82.000000)">
                        <path d="M42.0837155,58.1142125 C13.4337876,23.5003413 42.1191406,0.156982422 42.1191406,0.156982422 C42.1191406,0.156982422 42.1192367,0.188826104 42.1194174,0.252374493 C43.2398092,1.18444372 70.1795963,24.1849002 42.119253,58.0864955 C42.1192156,58.1099843 42.1191781,58.1334799 42.1191406,58.1569824 C42.1094224,58.1452574 42.0997107,58.1335336 42.0900057,58.1218111 C42.0837322,58.1243148 42.0837241,58.1192587 42.083716,58.1142029 Z" id="Combined-Shape" stroke="#073B4C" stroke-width="2" stroke-linecap="square"></path>
                        <path d="M42.4433594,61.1367187 C42.4433594,61.1367187 40.0214844,6.8984375 0.537109375,32.5175781 C19.0644531,29.7314453 22.4140625,30.7578125 28.0136719,45.9472656 C33.6132812,61.1367187 42.4433594,61.1367187 42.4433594,61.1367187 Z" id="Path-3" fill="#073B4C"></path>
                        <path d="M82.0909538,61.1367187 C82.0909538,61.1367187 95.1378288,4.1484375 40.1847038,32.5175781 C58.7120476,29.7314453 62.0616569,30.7578125 67.6612663,45.9472656 C73.2608757,61.1367188 82.0909538,61.1367187 82.0909538,61.1367187 Z" id="Path-3-Copy" fill="#073B4C" transform="translate(61.814032, 42.868427) scale(-1, 1) translate(-61.814032, -42.868427) "></path>
                        <circle id="Oval" fill="#073B4C" cx="36" cy="18" r="2"></circle>
                        <circle id="Oval-Copy-3" fill="#073B4C" cx="36" cy="24" r="2"></circle>
                        <circle id="Oval-Copy-6" fill="#073B4C" cx="36" cy="30" r="2"></circle>
                        <circle id="Oval-Copy-9" fill="#073B4C" cx="36" cy="36" r="2"></circle>
                        <circle id="Oval-Copy" fill="#073B4C" cx="42" cy="18" r="2"></circle>
                        <circle id="Oval-Copy-12" fill="#073B4C" cx="42" cy="12" r="2"></circle>
                        <circle id="Oval-Copy-4" fill="#073B4C" cx="42" cy="24" r="2"></circle>
                        <circle id="Oval-Copy-7" fill="#073B4C" cx="42" cy="30" r="2"></circle>
                        <circle id="Oval-Copy-10" fill="#073B4C" cx="42" cy="36" r="2"></circle>
                        <circle id="Oval-Copy-2" fill="#073B4C" cx="48" cy="18" r="2"></circle>
                        <circle id="Oval-Copy-5" fill="#073B4C" cx="48" cy="24" r="2"></circle>
                        <circle id="Oval-Copy-8" fill="#073B4C" cx="48" cy="30" r="2"></circle>
                        <circle id="Oval-Copy-11" fill="#073B4C" cx="48" cy="36" r="2"></circle>
                    </g>
                    <g id="maize-copy-4" transform="translate(1017.000000, 67.000000)" fill="#073B4C">
                        <path d="M42.4433594,61.1367187 C42.4433594,61.1367187 40.0214844,6.8984375 0.537109375,32.5175781 C19.0644531,29.7314453 22.4140625,30.7578125 28.0136719,45.9472656 C33.6132812,61.1367187 42.4433594,61.1367187 42.4433594,61.1367187 Z" id="Path-3"></path>
                    </g>
                    <g id="wheat-copy-8" transform="translate(882.000000, 42.000000)" fill="#073B4C">
                        <path d="M18.0969253,0 C18.0969253,0 6.71658154,17 17.9660742,17 C29.2155668,17 18.0969253,0 18.0969253,0 Z" id="Path-4"></path>
                        <path d="M10.0969253,12 C10.0969253,12 -1.28341846,29 9.96607418,29 C21.2155668,29 10.0969253,12 10.0969253,12 Z" id="Path-4-Copy" transform="translate(10.000000, 20.500000) rotate(-45.000000) translate(-10.000000, -20.500000) "></path>
                        <path d="M27.0969253,12 C27.0969253,12 15.7165815,29 26.9660742,29 C38.2155668,29 27.0969253,12 27.0969253,12 Z" id="Path-4-Copy-2" transform="translate(27.000000, 20.500000) scale(-1, 1) rotate(-45.000000) translate(-27.000000, -20.500000) "></path>
                        <path d="M10.0969253,25 C10.0969253,25 -1.28341846,42 9.96607418,42 C21.2155668,42 10.0969253,25 10.0969253,25 Z" id="Path-4-Copy-4" transform="translate(10.000000, 33.500000) rotate(-45.000000) translate(-10.000000, -33.500000) "></path>
                        <path d="M27.0969253,25 C27.0969253,25 15.7165815,42 26.9660742,42 C38.2155668,42 27.0969253,25 27.0969253,25 Z" id="Path-4-Copy-3" transform="translate(27.000000, 33.500000) scale(-1, 1) rotate(-45.000000) translate(-27.000000, -33.500000) "></path>
                        <path d="M10.0969253,38 C10.0969253,38 -1.28341846,55 9.96607418,55 C21.2155668,55 10.0969253,38 10.0969253,38 Z" id="Path-4-Copy-6" transform="translate(10.000000, 46.500000) rotate(-45.000000) translate(-10.000000, -46.500000) "></path>
                        <path d="M27.0969253,38 C27.0969253,38 15.7165815,55 26.9660742,55 C38.2155668,55 27.0969253,38 27.0969253,38 Z" id="Path-4-Copy-5" transform="translate(27.000000, 46.500000) scale(-1, 1) rotate(-45.000000) translate(-27.000000, -46.500000) "></path>
                        <path d="M18.7322159,55 L20.2677839,55 L20.9948305,82.4613093 C21.0173291,83.3111047 20.3539832,84 19.4999999,84 L19.4999999,84 C18.6519291,84 17.9826537,83.3117454 18.0051693,82.4613093 L18.7322159,55 Z" id="Rectangle-2"></path>
                    </g>
                    <g id="wheat-copy-6" transform="translate(958.000000, 0.000000)" fill="#073B4C">
                        <path d="M10.0969253,38 C10.0969253,38 -1.28341846,55 9.96607418,55 C21.2155668,55 10.0969253,38 10.0969253,38 Z" id="Path-4-Copy-6" transform="translate(10.000000, 46.500000) rotate(-45.000000) translate(-10.000000, -46.500000) "></path>
                        <path d="M27.0969253,38 C27.0969253,38 15.7165815,55 26.9660742,55 C38.2155668,55 27.0969253,38 27.0969253,38 Z" id="Path-4-Copy-5" transform="translate(27.000000, 46.500000) scale(-1, 1) rotate(-45.000000) translate(-27.000000, -46.500000) "></path>
                        <path d="M18.7322159,55 L20.2677839,55 L20.9948305,82.4613093 C21.0173291,83.3111047 20.3539832,84 19.4999999,84 L19.4999999,84 C18.6519291,84 17.9826537,83.3117454 18.0051693,82.4613093 L18.7322159,55 Z" id="Rectangle-2"></path>
                    </g>
                    <circle id="Oval-2-Copy-14" stroke="#073B4C" stroke-width="2" stroke-linecap="square" cx="873" cy="136" r="5"></circle>
                    <circle id="Oval-2-Copy-11" stroke="#073B4C" stroke-width="2" stroke-linecap="square" cx="925" cy="106" r="5"></circle>
                    <circle id="Oval-2-Copy-10" stroke="#073B4C" stroke-width="2" stroke-linecap="square" cx="976" cy="126" r="5"></circle>
                    <g id="soybeans-copy-8" transform="translate(942.000000, 78.000000)">
                        <path d="M0.456501719,41.213931 C0.160595652,39.8924352 0,38.4749011 0,37 C0,35.1649139 0.248611324,33.418635 0.697131872,31.835649 C1.09030551,29.784727 0.877965976,27.4885637 0.629519451,25.9188148 C0.223695606,24.4014993 0,22.7407032 0,21 C0,13.8202983 3.80557963,8 8.5,8 C13.1944204,8 17,13.8202983 17,21 C17,22.6848098 16.7904393,24.2947618 16.4090084,25.7722117 C16.1627437,27.3790485 15.944145,29.8391348 16.3826319,32.1268661 C16.7807674,33.6318109 17,35.2767491 17,37 C17,38.8033591 16.7599109,40.5209552 16.3259522,42.0820996 C15.9945765,43.732659 15.5366834,46.987235 16.3134766,49.8262939 C16.3389715,49.9194739 16.3587688,50.0076705 16.37312,50.0910655 C16.7772742,51.6057093 17,53.2630744 17,55 C17,62.1797017 13.1944204,68 8.5,68 C3.80557963,68 0,62.1797017 0,55 C0,53.2972532 0.2140465,51.6709667 0.603232431,50.1806454 C0.611222139,50.1376039 0.620905235,50.092944 0.632324219,50.0466309 C1.28743359,47.3896393 0.776109875,43.2398162 0.456501719,41.213931 Z" id="Combined-Shape" fill="#073B4C"></path>
                        <ellipse id="Oval-3-Copy-3" fill="#4AD4A1" cx="8" cy="18.5" rx="5" ry="7.5"></ellipse>
                        <ellipse id="Oval-3-Copy-4" fill="#4AD4A1" cx="7.5" cy="37" rx="4.5" ry="7"></ellipse>
                        <ellipse id="Oval-3-Copy-5" fill="#4AD4A1" cx="9" cy="56" rx="6" ry="9"></ellipse>
                        <path d="M13.8493719,11.1270883 C11.9736879,13.2784061 10.5824578,16.4476872 10.1351365,20.090826 C9.92299819,21.8185542 9.94262627,23.4942327 10.1605109,25.0496958 C10.2158013,26.6380221 10.1467262,28.9429478 9.50653868,30.9306667 C8.86844387,32.4471925 8.40886779,34.1501568 8.18522705,35.9715644 C8.00548183,37.4354718 7.99212647,38.8620116 8.12477708,40.2097189 C8.19510962,42.259454 8.19688579,46.4406596 7.22285369,48.9980086 C7.20587567,49.0425849 7.19082207,49.0857319 7.17764648,49.1274788 L7.17764648,49.1274788 C6.609737,50.5592617 6.1990915,52.1473404 5.99157887,53.8373952 C5.48174063,57.9896944 6.31058295,61.8413546 8.01293531,64.4461288 C8.03662888,64.6708371 8.14718848,64.8577403 8.36865234,64.9916992 C8.38582677,65.0020877 8.40291006,65.0125619 8.41990428,65.0231219 C8.94660561,65.7147834 9.54243604,66.2975752 10.1963707,66.7490709 C11.020593,67.854249 11.8282586,69.3061857 13.1269531,71.1225586 C13.6296064,69.8010877 15.2573373,68.1771492 16.6761189,66.9427398 C17.4602919,66.4982881 18.2061552,65.8954294 18.8926618,65.1590883 C18.979626,65.094696 19.0273437,65.0603027 19.0273437,65.0603027 L19.0307124,65.0083282 C20.9669129,62.8557289 22.4080611,59.6295303 22.8648635,55.909174 C23.0765414,54.1851951 23.0574578,52.5130404 22.8409048,50.9604325 C22.8368238,50.8759102 22.8279225,50.7859583 22.8139734,50.6903658 C22.3889646,47.7778015 23.2400776,44.6032877 23.7701359,43.0054159 C24.3911156,41.5087943 24.8387374,39.8332604 25.0585116,38.0433433 C25.2685231,36.3329372 25.2513922,34.6735424 25.039631,33.1312947 C24.8832167,30.8071778 25.3999952,28.3920691 25.8402484,26.8272215 C26.398892,25.4072689 26.8030945,23.8348563 27.0084211,22.1626048 C27.5226821,17.974285 26.6749362,14.0918429 24.9425649,11.4863652 L24.9504395,11.4772949 C24.9504395,11.4772949 24.9206757,11.4412697 24.8658233,11.3726275 C24.6758027,11.095104 24.4755308,10.8326624 24.2656104,10.5865287 C22.9339657,8.7756018 20.125,4.53557215 20.125,0.991210938 C15.8344727,8.14868164 17.472168,7.97851562 13.8354492,10.9921875 C13.839466,11.0375118 13.8441113,11.0824779 13.8493719,11.1270883 Z" id="Combined-Shape" fill="#073B4C"></path>
                    </g>
                    <g id="soybeans-copy-7" transform="translate(764.000000, 67.000000)">
                        <path d="M0.456501719,41.213931 C0.160595652,39.8924352 0,38.4749011 0,37 C0,35.1649139 0.248611324,33.418635 0.697131872,31.835649 C1.09030551,29.784727 0.877965976,27.4885637 0.629519451,25.9188148 C0.223695606,24.4014993 0,22.7407032 0,21 C0,13.8202983 3.80557963,8 8.5,8 C13.1944204,8 17,13.8202983 17,21 C17,22.6848098 16.7904393,24.2947618 16.4090084,25.7722117 C16.1627437,27.3790485 15.944145,29.8391348 16.3826319,32.1268661 C16.7807674,33.6318109 17,35.2767491 17,37 C17,38.8033591 16.7599109,40.5209552 16.3259522,42.0820996 C15.9945765,43.732659 15.5366834,46.987235 16.3134766,49.8262939 C16.3389715,49.9194739 16.3587688,50.0076705 16.37312,50.0910655 C16.7772742,51.6057093 17,53.2630744 17,55 C17,62.1797017 13.1944204,68 8.5,68 C3.80557963,68 0,62.1797017 0,55 C0,53.2972532 0.2140465,51.6709667 0.603232431,50.1806454 C0.611222139,50.1376039 0.620905235,50.092944 0.632324219,50.0466309 C1.28743359,47.3896393 0.776109875,43.2398162 0.456501719,41.213931 Z" id="Combined-Shape" fill="#073B4C"></path>
                        <ellipse id="Oval-3-Copy-3" fill="#4AD4A1" cx="8" cy="18.5" rx="5" ry="7.5"></ellipse>
                        <ellipse id="Oval-3-Copy-4" fill="#4AD4A1" cx="7.5" cy="37" rx="4.5" ry="7"></ellipse>
                        <ellipse id="Oval-3-Copy-5" fill="#4AD4A1" cx="9" cy="56" rx="6" ry="9"></ellipse>
                        <path d="M13.8493719,11.1270883 C11.9736879,13.2784061 10.5824578,16.4476872 10.1351365,20.090826 C9.92299819,21.8185542 9.94262627,23.4942327 10.1605109,25.0496958 C10.2158013,26.6380221 10.1467262,28.9429478 9.50653868,30.9306667 C8.86844387,32.4471925 8.40886779,34.1501568 8.18522705,35.9715644 C8.00548183,37.4354718 7.99212647,38.8620116 8.12477708,40.2097189 C8.19510962,42.259454 8.19688579,46.4406596 7.22285369,48.9980086 C7.20587567,49.0425849 7.19082207,49.0857319 7.17764648,49.1274788 L7.17764648,49.1274788 C6.609737,50.5592617 6.1990915,52.1473404 5.99157887,53.8373952 C5.48174063,57.9896944 6.31058295,61.8413546 8.01293531,64.4461288 C8.03662888,64.6708371 8.14718848,64.8577403 8.36865234,64.9916992 C8.38582677,65.0020877 8.40291006,65.0125619 8.41990428,65.0231219 C8.94660561,65.7147834 9.54243604,66.2975752 10.1963707,66.7490709 C11.020593,67.854249 11.8282586,69.3061857 13.1269531,71.1225586 C13.6296064,69.8010877 15.2573373,68.1771492 16.6761189,66.9427398 C17.4602919,66.4982881 18.2061552,65.8954294 18.8926618,65.1590883 C18.979626,65.094696 19.0273437,65.0603027 19.0273437,65.0603027 L19.0307124,65.0083282 C20.9669129,62.8557289 22.4080611,59.6295303 22.8648635,55.909174 C23.0765414,54.1851951 23.0574578,52.5130404 22.8409048,50.9604325 C22.8368238,50.8759102 22.8279225,50.7859583 22.8139734,50.6903658 C22.3889646,47.7778015 23.2400776,44.6032877 23.7701359,43.0054159 C24.3911156,41.5087943 24.8387374,39.8332604 25.0585116,38.0433433 C25.2685231,36.3329372 25.2513922,34.6735424 25.039631,33.1312947 C24.8832167,30.8071778 25.3999952,28.3920691 25.8402484,26.8272215 C26.398892,25.4072689 26.8030945,23.8348563 27.0084211,22.1626048 C27.5226821,17.974285 26.6749362,14.0918429 24.9425649,11.4863652 L24.9504395,11.4772949 C24.9504395,11.4772949 24.9206757,11.4412697 24.8658233,11.3726275 C24.6758027,11.095104 24.4755308,10.8326624 24.2656104,10.5865287 C22.9339657,8.7756018 20.125,4.53557215 20.125,0.991210938 C15.8344727,8.14868164 17.472168,7.97851562 13.8354492,10.9921875 C13.839466,11.0375118 13.8441113,11.0824779 13.8493719,11.1270883 Z" id="Combined-Shape" fill="#073B4C"></path>
                    </g>
                    <g id="potato-copy-15" transform="translate(898.000000, 129.000000)">
                        <path d="M17.3605106,30 C28.0728107,30 32,22.7253877 32,15 C32,7.27461227 28.0728107,0 17.3605106,0 C12.0623886,0 9.94520355,5.98618012 6.4445817,8.46932828 C2.86727821,11.0068702 0,14.2373056 0,18.1418476 C0,25.8672353 6.64821048,30 17.3605106,30 Z" id="Oval-4" fill="#073B4C"></path>
                        <ellipse id="Oval-5" fill="#4AD4A1" cx="18.5" cy="5" rx="1.5" ry="1"></ellipse>
                        <circle id="Oval-5-Copy" fill="#4AD4A1" cx="15" cy="11" r="1"></circle>
                        <ellipse id="Oval-5-Copy-2" fill="#4AD4A1" cx="26" cy="9" rx="1" ry="1"></ellipse>
                    </g>
                    <g id="potato-copy-13" transform="translate(778.000000, 144.000000)">
                        <path d="M17.3605106,30 C28.0728107,30 32,22.7253877 32,15 C32,7.27461227 28.0728107,0 17.3605106,0 C12.0623886,0 9.94520355,5.98618012 6.4445817,8.46932828 C2.86727821,11.0068702 0,14.2373056 0,18.1418476 C0,25.8672353 6.64821048,30 17.3605106,30 Z" id="Oval-4" fill="#073B4C"></path>
                        <ellipse id="Oval-5" fill="#4AD4A1" cx="18.5" cy="5" rx="1.5" ry="1"></ellipse>
                        <circle id="Oval-5-Copy" fill="#4AD4A1" cx="15" cy="11" r="1"></circle>
                        <ellipse id="Oval-5-Copy-2" fill="#4AD4A1" cx="26" cy="9" rx="1" ry="1"></ellipse>
                    </g>
                    <g id="potato-copy-12" transform="translate(843.000000, 53.000000)">
                        <path d="M17.3605106,30 C28.0728107,30 32,22.7253877 32,15 C32,7.27461227 28.0728107,0 17.3605106,0 C12.0623886,0 9.94520355,5.98618012 6.4445817,8.46932828 C2.86727821,11.0068702 0,14.2373056 0,18.1418476 C0,25.8672353 6.64821048,30 17.3605106,30 Z" id="Oval-4" fill="#073B4C"></path>
                        <ellipse id="Oval-5" fill="#4AD4A1" cx="18.5" cy="5" rx="1.5" ry="1"></ellipse>
                        <circle id="Oval-5-Copy" fill="#4AD4A1" cx="15" cy="11" r="1"></circle>
                        <ellipse id="Oval-5-Copy-2" fill="#4AD4A1" cx="26" cy="9" rx="1" ry="1"></ellipse>
                    </g>
                    <g id="yam-copy-11" transform="translate(845.000000, 139.000000)">
                        <path d="M12.5,44 C12.5,44 24,34.1502645 24,22 C24,9.8497355 12.5,0 12.5,0 C12.5,0 1,9.8497355 1,22 C1,34.1502645 12.5,44 12.5,44 Z" id="Oval-6" fill="#073B4C"></path>
                        <path d="M0,17.0847328 C0,17.0847328 3.09821602,15 6.31482428,15" id="Path-8-Copy-2" stroke="#4AD4A1" stroke-width="2" stroke-linecap="round"></path>
                        <path d="M9,9.08473277 C9,9.08473277 12.098216,7 15.3148243,7" id="Path-8-Copy-3" stroke="#4AD4A1" stroke-width="2" stroke-linecap="round" transform="translate(12.157412, 8.042366) rotate(18.000000) translate(-12.157412, -8.042366) "></path>
                        <path d="M18,26.0847328 C18,26.0847328 21.098216,24 24.3148243,24" id="Path-8-Copy" stroke="#4AD4A1" stroke-width="2" stroke-linecap="round" transform="translate(21.157412, 25.042366) rotate(40.000000) translate(-21.157412, -25.042366) "></path>
                    </g>
                    <g id="yam-copy-10" transform="translate(766.000000, 22.000000)">
                        <path d="M12.5,44 C12.5,44 24,34.1502645 24,22 C24,9.8497355 12.5,0 12.5,0 C12.5,0 1,9.8497355 1,22 C1,34.1502645 12.5,44 12.5,44 Z" id="Oval-6" fill="#073B4C"></path>
                        <path d="M3,34.0847328 C3,34.0847328 6.09821602,32 9.31482428,32" id="Path-8" stroke="#4AD4A1" stroke-width="2" stroke-linecap="round"></path>
                        <path d="M18,26.0847328 C18,26.0847328 21.098216,24 24.3148243,24" id="Path-8-Copy" stroke="#4AD4A1" stroke-width="2" stroke-linecap="round" transform="translate(21.157412, 25.042366) rotate(40.000000) translate(-21.157412, -25.042366) "></path>
                    </g>
                    <g id="yam-copy-9" transform="translate(989.000000, 54.000000)">
                        <path d="M12.5,44 C12.5,44 24,34.1502645 24,22 C24,9.8497355 12.5,0 12.5,0 C12.5,0 1,9.8497355 1,22 C1,34.1502645 12.5,44 12.5,44 Z" id="Oval-6" fill="#073B4C"></path>
                        <path d="M3,34.0847328 C3,34.0847328 6.09821602,32 9.31482428,32" id="Path-8" stroke="#4AD4A1" stroke-width="2" stroke-linecap="round"></path>
                        <path d="M0,17.0847328 C0,17.0847328 3.09821602,15 6.31482428,15" id="Path-8-Copy-2" stroke="#4AD4A1" stroke-width="2" stroke-linecap="round"></path>
                        <path d="M9,9.08473277 C9,9.08473277 12.098216,7 15.3148243,7" id="Path-8-Copy-3" stroke="#4AD4A1" stroke-width="2" stroke-linecap="round" transform="translate(12.157412, 8.042366) rotate(18.000000) translate(-12.157412, -8.042366) "></path>
                        <path d="M18,26.0847328 C18,26.0847328 21.098216,24 24.3148243,24" id="Path-8-Copy" stroke="#4AD4A1" stroke-width="2" stroke-linecap="round" transform="translate(21.157412, 25.042366) rotate(40.000000) translate(-21.157412, -25.042366) "></path>
                    </g>
                    <g id="yam-copy-8" transform="translate(925.000000, 32.000000)">
                        <path d="M12.5,44 C12.5,44 24,34.1502645 24,22 C24,9.8497355 12.5,0 12.5,0 C12.5,0 1,9.8497355 1,22 C1,34.1502645 12.5,44 12.5,44 Z" id="Oval-6" fill="#073B4C"></path>
                        <path d="M3,34.0847328 C3,34.0847328 6.09821602,32 9.31482428,32" id="Path-8" stroke="#4AD4A1" stroke-width="2" stroke-linecap="round"></path>
                        <path d="M0,17.0847328 C0,17.0847328 3.09821602,15 6.31482428,15" id="Path-8-Copy-2" stroke="#4AD4A1" stroke-width="2" stroke-linecap="round"></path>
                        <path d="M18,26.0847328 C18,26.0847328 21.098216,24 24.3148243,24" id="Path-8-Copy" stroke="#4AD4A1" stroke-width="2" stroke-linecap="round" transform="translate(21.157412, 25.042366) rotate(40.000000) translate(-21.157412, -25.042366) "></path>
                    </g>
                    <g id="banana-copy-5" transform="translate(989.000000, 108.000000)">
                        <path d="M17.73288,0.0573177172 C17.1920725,-0.191189278 7.45455973,-0.340631502 10.2548527,15.7472591 C13.0551457,31.8351497 22.6244816,36.6642513 29.3027043,34.5333919 C35.9809269,32.4025326 25.7157902,26.0509701 23.7734074,24.0368099 C21.8310246,22.0226497 19.583466,14.0114193 19.583466,8.47333334 C19.583466,2.9352474 20.6412454,1.3937435 17.73288,0.0573177172 Z" id="Path-9" stroke="#073B4C" stroke-width="2" stroke-linecap="square" fill="#4AD4A1"></path>
                        <path d="M34.6875,28.6630859 C33.17707,24.6031378 26.9355538,16.699707 24.0561593,19.5004883 C21.1767647,22.3012695 25.5009835,26.3310547 26.7695382,27.199707 C28.0380929,28.0683594 30.368171,29.7539063 30.368171,31.4033203 C31.7685616,31.8728027 32.9023507,31.8513184 32.9023507,31.8513184 L32.9174874,33.7785645 L30.6462472,33.859375 C30.6462472,33.859375 20.767585,38.692627 14.8227608,28.6630859 C15.5166016,36.8041992 17.9809605,40.8710937 17.9809605,40.8710937 C17.9809605,40.8710937 3.92211914,38.0803223 8.14550781,21.7075195 C5.35914226,23.9441338 5.29346395,27.9992676 5.63648153,32.7653809 C5.9794991,37.5314941 2.96484375,36.7841797 0.75,30.2429199 C-1.46484375,23.7016602 2.84571004,17.4353027 10.4628975,18.284668 C14.2970767,18.7122035 14.8227608,17.7387695 16.819587,18.284668 C17.6838665,18.5209473 19.9235909,19.920166 20.4638741,21.7075195 C19.9235909,19.5004883 20.9687195,18.4297099 22.0246651,17 C26.0727539,11.519043 34.6875,14.1630859 36.7910156,24.9663086 C38.8945312,35.7695313 37.3803711,35.9013672 34.6875,28.6630859 Z" id="Path-11" fill="#073B4C"></path>
                        <path d="M17.4211426,18.2424316 C17.4211426,18.2424316 8.8046875,18.7678223 7.00366211,24.0253906" id="Path-13" stroke="#4AD4A1" stroke-linecap="round"></path>
                        <path d="M18.0878906,40.8476562 C18.0878906,40.8476562 9.40273712,18.2451172 18.4512465,19.001709" id="Path-12" stroke="#4AD4A1" stroke-linecap="round"></path>
                        <path d="M27.4992676,20.112793 C27.4992676,20.112793 21.8840332,15.7932989 20.1352539,19.7644903" id="Path-10" stroke="#4AD4A1" stroke-linecap="round"></path>
                    </g>
                    <g id="banana-copy-4" transform="translate(799.000000, 32.000000)">
                        <path d="M17.73288,0.0573177172 C17.1920725,-0.191189278 7.45455973,-0.340631502 10.2548527,15.7472591 C13.0551457,31.8351497 22.6244816,36.6642513 29.3027043,34.5333919 C35.9809269,32.4025326 25.7157902,26.0509701 23.7734074,24.0368099 C21.8310246,22.0226497 19.583466,14.0114193 19.583466,8.47333334 C19.583466,2.9352474 20.6412454,1.3937435 17.73288,0.0573177172 Z" id="Path-9" stroke="#073B4C" stroke-width="2" stroke-linecap="square" fill="#4AD4A1"></path>
                        <path d="M34.6875,28.6630859 C33.17707,24.6031378 26.9355538,16.699707 24.0561593,19.5004883 C21.1767647,22.3012695 25.5009835,26.3310547 26.7695382,27.199707 C28.0380929,28.0683594 30.368171,29.7539063 30.368171,31.4033203 C31.7685616,31.8728027 32.9023507,31.8513184 32.9023507,31.8513184 L32.9174874,33.7785645 L30.6462472,33.859375 C30.6462472,33.859375 20.767585,38.692627 14.8227608,28.6630859 C15.5166016,36.8041992 17.9809605,40.8710937 17.9809605,40.8710937 C17.9809605,40.8710937 3.92211914,38.0803223 8.14550781,21.7075195 C5.35914226,23.9441338 5.29346395,27.9992676 5.63648153,32.7653809 C5.9794991,37.5314941 2.96484375,36.7841797 0.75,30.2429199 C-1.46484375,23.7016602 2.84571004,17.4353027 10.4628975,18.284668 C14.2970767,18.7122035 14.8227608,17.7387695 16.819587,18.284668 C17.6838665,18.5209473 19.9235909,19.920166 20.4638741,21.7075195 C19.9235909,19.5004883 20.9687195,18.4297099 22.0246651,17 C26.0727539,11.519043 34.6875,14.1630859 36.7910156,24.9663086 C38.8945312,35.7695313 37.3803711,35.9013672 34.6875,28.6630859 Z" id="Path-11" fill="#073B4C"></path>
                        <path d="M17.4211426,18.2424316 C17.4211426,18.2424316 8.8046875,18.7678223 7.00366211,24.0253906" id="Path-13" stroke="#4AD4A1" stroke-linecap="round"></path>
                        <path d="M18.0878906,40.8476562 C18.0878906,40.8476562 9.40273712,18.2451172 18.4512465,19.001709" id="Path-12" stroke="#4AD4A1" stroke-linecap="round"></path>
                        <path d="M27.4992676,20.112793 C27.4992676,20.112793 21.8840332,15.7932989 20.1352539,19.7644903" id="Path-10" stroke="#4AD4A1" stroke-linecap="round"></path>
                    </g>
                </g>
            </g>
        </g>
    </g>
</svg>